<svg width="100%" height="100%" viewBox="0 0 165 35" version="1.1" xmlns="http://www.w3.org/2000/svg" xmlns:xlink="http://www.w3.org/1999/xlink" xml:space="preserve" xmlns:serif="http://www.serif.com/" style="fill-rule:evenodd;clip-rule:evenodd;stroke-linejoin:round;stroke-miterlimit:2;">
    <g transform="matrix(1,0,0,1,-33.4,-32.2)">
        <g>
            <path d="M72.5,34.4L82.7,34.4L82.7,37.6L76.2,37.6L76.2,40.6L82.3,40.6L82.3,43.7L76.2,43.7L76.2,46.6L82.8,46.6L82.8,49.9L72.5,49.9L72.5,34.4Z" style="fill:white;fill-rule:nonzero;"/>
            <path d="M98.9,34.4L93.4,49.9L89.4,49.9L83.9,34.4L87.8,34.4L91.5,45.6L95,34.4L98.9,34.4Z" style="fill:white;fill-rule:nonzero;"/>
            <path d="M100.3,34.4L110.5,34.4L110.5,37.6L104,37.6L104,40.6L110.1,40.6L110.1,43.7L104,43.7L104,46.6L110.6,46.6L110.6,49.9L100.3,49.9L100.3,34.4Z" style="fill:white;fill-rule:nonzero;"/>
            <path d="M126.1,46.7L125.7,49.8L125.5,49.8C123,49.8 121.6,49 120.2,46.7L118.5,44L117.1,44L117.1,49.8L113.4,49.8L113.4,34.4L119.3,34.4C122.8,34.4 124.6,36.5 124.6,39C124.6,40.8 123.7,42.5 121.8,43.4L123.2,45.3C123.9,46.3 124.8,46.8 125.8,46.8L126.1,46.8L126.1,46.7ZM117.1,41.2L118.8,41.2C120,41.2 120.8,40.5 120.8,39.3C120.8,38 120,37.4 118.8,37.4L117.1,37.4L117.1,41.2Z" style="fill:white;fill-rule:nonzero;"/>
            <path d="M126.4,42.2C126.4,37 130,34.2 134.2,34.2C136.8,34.2 139.1,35.3 140.6,37.3L137.8,39.5C136.9,38.5 135.8,37.7 134.2,37.7C132.2,37.7 130.2,39.2 130.2,42.3C130.2,45.3 132.1,46.7 134.7,46.7C135.8,46.7 136.5,46.5 137.1,46.3L137.1,44.7L134.6,44.7L134.6,41.6L140.7,41.6L140.7,48.7C139.2,49.5 137.5,50.2 134.8,50.2C129.6,50.1 126.4,47 126.4,42.2" style="fill:white;fill-rule:nonzero;"/>
            <path d="M156.4,46.7L156,49.8L155.8,49.8C153.3,49.8 151.9,49 150.5,46.7L148.8,44L147.4,44L147.4,49.8L143.7,49.8L143.7,34.4L149.6,34.4C153.1,34.4 154.9,36.5 154.9,39C154.9,40.8 154,42.5 152.1,43.4L153.5,45.3C154.2,46.3 155.1,46.8 156.1,46.8L156.4,46.8L156.4,46.7ZM147.5,41.2L149.2,41.2C150.4,41.2 151.2,40.5 151.2,39.3C151.2,38 150.4,37.4 149.2,37.4L147.5,37.4L147.5,41.2Z" style="fill:white;fill-rule:nonzero;"/>
            <path d="M158.1,34.4L168.2,34.4L168.2,37.6L161.7,37.6L161.7,40.6L167.8,40.6L167.8,43.7L161.7,43.7L161.7,46.6L168.3,46.6L168.3,49.9L158.1,49.9L158.1,34.4Z" style="fill:white;fill-rule:nonzero;"/>
            <path d="M171.2,34.4L181.4,34.4L181.4,37.6L174.9,37.6L174.9,40.6L181,40.6L181,43.7L174.9,43.7L174.9,46.6L181.5,46.6L181.5,49.9L171.2,49.9L171.2,34.4Z" style="fill:white;fill-rule:nonzero;"/>
            <path d="M198.1,34.4L198.1,49.9L195,49.9L187.9,39.9L187.9,49.9L184.4,49.9L184.4,34.4L187.9,34.4L194.7,43.7L194.7,34.4L198.1,34.4Z" style="fill:white;fill-rule:nonzero;"/>
            <path d="M82.6,54.2L78.8,65L76,65L72.2,54.2L74.9,54.2L77.4,62L79.9,54.2L82.6,54.2Z" style="fill:white;fill-rule:nonzero;"/>
            <path d="M89.3,62.8L85.4,62.8L84.7,65L82.1,65L86,54.2L88.8,54.2L92.7,65L90,65L89.3,62.8ZM88.6,60.8L87.3,57L86,60.8L88.6,60.8Z" style="fill:white;fill-rule:nonzero;"/>
            <path d="M100.5,62.7L100.5,65L93.9,65L93.9,54.2L96.4,54.2L96.4,62.7L100.5,62.7Z" style="fill:white;fill-rule:nonzero;"/>
            <path d="M108.6,62.7L108.6,65L101.9,65L101.9,54.2L104.5,54.2L104.5,62.7L108.6,62.7Z" style="fill:white;fill-rule:nonzero;"/>
            <path d="M110,54.2L117.1,54.2L117.1,56.5L112.6,56.5L112.6,58.5L116.8,58.5L116.8,60.7L112.6,60.7L112.6,62.7L117.1,62.7L117.1,65L110,65L110,54.2Z" style="fill:white;fill-rule:nonzero;"/>
            <path d="M124,60.9L124,65L121.5,65L121.5,60.9L117.9,54.2L120.7,54.2L122.9,58.6L125.1,54.2L127.5,54.2L124,60.9Z" style="fill:white;fill-rule:nonzero;"/>
            <path d="M131.1,59.5C131.1,56.1 133.5,54.1 136.5,54.1C138.7,54.1 139.9,55 140.7,56.1L138.8,57.6C138.3,56.9 137.7,56.4 136.5,56.4C134.9,56.4 133.8,57.7 133.8,59.4C133.8,61.3 135.1,62.7 137.2,62.7C138.3,62.7 139.2,62.3 139.8,62L140.8,64.1C139.8,64.7 138.6,65.1 137.1,65.1C133.5,65.1 131.1,63 131.1,59.5" style="fill:white;fill-rule:nonzero;"/>
            <path d="M141.1,59.6C141.1,56.2 143.5,54.1 146.8,54.1C150,54.1 152.5,56.3 152.5,59.6C152.5,62.9 150.1,65.2 146.8,65.2C143.6,65.1 141.1,63 141.1,59.6M149.8,59.6C149.8,57.8 148.6,56.5 146.8,56.5C145,56.5 143.8,57.8 143.8,59.6C143.8,61.4 145,62.7 146.8,62.7C148.5,62.7 149.8,61.4 149.8,59.6" style="fill:white;fill-rule:nonzero;"/>
            <path d="M160.7,62.7L160.7,65L154.1,65L154.1,54.2L156.6,54.2L156.6,62.7L160.7,62.7Z" style="fill:white;fill-rule:nonzero;"/>
            <path d="M168.8,62.7L168.8,65L162.2,65L162.2,54.2L164.7,54.2L164.7,62.7L168.8,62.7Z" style="fill:white;fill-rule:nonzero;"/>
            <path d="M170.3,54.2L177.3,54.2L177.3,56.5L172.8,56.5L172.8,58.5L177,58.5L177,60.7L172.8,60.7L172.8,62.7L177.4,62.7L177.4,65L170.3,65L170.3,54.2Z" style="fill:white;fill-rule:nonzero;"/>
            <path d="M178.7,59.7C178.7,56.1 181.2,54.1 184.1,54.1C185.9,54.1 187.5,54.9 188.5,56.2L186.6,57.7C186,57 185.2,56.5 184.1,56.5C182.7,56.5 181.3,57.5 181.3,59.7C181.3,61.8 182.6,62.8 184.4,62.8C185.2,62.8 185.7,62.7 186,62.5L186,61.4L184.2,61.4L184.2,59.3L188.5,59.3L188.5,64.2C187.4,64.8 186.2,65.2 184.4,65.2C180.9,65.1 178.7,63 178.7,59.7" style="fill:white;fill-rule:nonzero;"/>
            <path d="M190.8,54.2L197.9,54.2L197.9,56.5L193.4,56.5L193.4,58.5L197.6,58.5L197.6,60.7L193.4,60.7L193.4,62.7L197.9,62.7L197.9,65L190.8,65L190.8,54.2Z" style="fill:white;fill-rule:nonzero;"/>
            <path d="M46.3,44.9C46.8,45.8 47.5,46.5 48.3,47.2L48.4,47.2C48.4,47.1 48.4,47.1 48.5,47C48.7,46.1 48.9,45.3 49.2,44.4C49.4,43.7 49.5,42.9 49.5,42.2C49.6,41.3 49.4,40.4 49.1,39.6C48.7,38.6 48.1,37.7 47.4,36.8C47.3,36.6 47.1,36.5 47,36.3L46.8,36.5C46.5,37.1 46.2,37.7 46,38.3C45.8,39 45.7,39.6 45.6,40.3C45.6,40.8 45.5,41.3 45.5,41.9C45.5,42.3 45.5,42.6 45.6,43C45.7,43.7 45.9,44.3 46.3,44.9" style="fill:white;fill-rule:nonzero;"/>
            <path d="M42.6,45.5C43.4,46.4 44.1,47.4 44.5,48.5C45.2,50.1 45.7,51.7 46.2,53.4C46.2,53.5 46.2,53.5 46.3,53.6L46.4,53.5C46.7,53.2 47,52.8 47.4,52.5C47.5,52.4 47.5,52.3 47.5,52.2L47.5,52C47.4,51.4 47.5,50.8 47.6,50.2C47.7,49.8 47.8,49.4 47.9,48.9C47.9,48.8 47.9,48.7 47.8,48.7L47.7,48.6C46.8,47.9 45.9,47 45.3,46.1C44.5,45 44.1,43.8 44,42.5C44,41.8 44,41.1 44.1,40.3C44.2,39.2 44.4,38.1 44.8,37.1L44.8,36.9C43.4,37.6 42.2,38.4 41.1,39.5C40.2,40.3 39,42 38.8,42.4C38.9,42.4 38.9,42.5 39,42.5C40.4,43.4 41.6,44.3 42.6,45.5" style="fill:white;fill-rule:nonzero;"/>
            <path d="M44.3,56C44.3,55.9 44.2,55.9 44.3,56C42.6,55 41.1,53.8 39.8,52.4C39.1,51.6 38.5,50.7 38,49.8C37.6,49 37.4,48.1 37.2,47.2L37.2,47C36.7,49.6 36.9,52.1 37.9,54.6C38.7,56.8 40.1,58.7 41.9,60.2C42.1,59.8 42.2,59.4 42.4,59.1C42.6,58.7 42.8,58.4 43,58C43.2,57.6 43.4,57.3 43.7,57C43.8,56.6 44.1,56.3 44.3,56" style="fill:white;fill-rule:nonzero;"/>
            <path d="M59.9,42.3C59.2,42.4 58.5,42.5 57.8,42.7C57,42.9 56.3,43.3 55.7,43.8C55.1,44.2 54.7,44.8 54.3,45.4C53.6,46.5 53.1,47.7 52.8,49L52.8,49.1L52.9,49.1C53.7,49.2 54.5,49.2 55.3,49.2C55.8,49.2 56.4,49.1 56.9,49C57.6,48.8 58.4,48.6 59,48.2C59.7,47.8 60.3,47.3 60.8,46.7C61.7,45.6 62.4,44.4 63,43.1C63.1,42.8 63.1,42.8 62.9,42.4C62.9,42.3 62.8,42.3 62.7,42.3L59.9,42.3" style="fill:white;fill-rule:nonzero;"/>
            <path d="M48.4,36C49.1,36.8 49.7,37.7 50.2,38.7C50.6,39.7 50.9,40.7 50.9,41.8C50.9,42.7 50.8,43.6 50.6,44.5C50.3,46 49.9,47.5 49.4,49C49.2,49.5 49.1,50.1 49,50.6L49,51L49.1,50.9C49.7,50.4 50.4,49.9 51,49.3C51.1,49.2 51.1,49.1 51.2,49C51.3,48.4 51.5,47.8 51.7,47.3C52.1,46.2 52.6,45.1 53.3,44.2C54.2,42.9 55.3,42 56.8,41.5C58,41 59.3,40.8 60.6,40.8L61.9,40.8C60.9,39.5 59.7,38.5 58.4,37.7C56.4,36.4 54.2,35.7 51.8,35.6C50.6,35.5 49.5,35.6 48.4,35.8C48.3,35.9 48.4,36 48.4,36" style="fill:white;fill-rule:nonzero;"/>
            <path d="M38.4,45.4C38.5,46.3 38.7,47.2 38.9,48C39.2,49.1 39.7,50.1 40.5,51C40.9,51.5 41.3,51.9 41.8,52.4C42.7,53.3 43.7,54 44.8,54.6C44.9,54.6 44.9,54.7 45,54.7L45,54.5C44.9,54.3 44.9,54.1 44.8,53.9C44.4,52.4 43.9,51 43.3,49.6C43.1,49 42.8,48.5 42.5,48C42,47.2 41.4,46.5 40.7,45.8C40,45.1 39.2,44.5 38.4,44C38.3,44 38.3,43.9 38.2,43.9L38.2,44.1C38.4,44.5 38.4,44.9 38.4,45.4" style="fill:white;fill-rule:nonzero;"/>
            <path d="M63.9,44.6C63.9,44.7 63.8,44.7 63.8,44.8C63.1,46.1 62.3,47.3 61.2,48.4C60.5,49.1 59.7,49.6 58.8,50C57.6,50.5 56.3,50.7 55,50.8L53.4,50.8C52.9,50.8 52.5,50.7 52,50.7C51.9,50.7 51.8,50.7 51.7,50.8C49.9,52.2 48.2,53.7 46.7,55.4C46.7,55.4 46.6,55.5 46.6,55.6L46.8,55.6C47.4,55.5 48,55.4 48.6,55.4C48.8,55.4 48.9,55.4 49,55.2C49.6,54.5 50.2,53.9 51,53.4C52.2,52.6 53.5,52.2 55,52.2C55.6,52.2 56.2,52.2 56.8,52.3C57.7,52.4 58.5,52.6 59.3,52.9C60.9,53.5 62.3,54.5 63.3,55.9L63.4,56C64.2,54.3 64.7,52.6 64.9,50.7C65,48.5 64.7,46.5 63.9,44.6" style="fill:white;fill-rule:nonzero;"/>
            <path d="M68.2,48.5C68.1,47.5 68,46.5 67.8,45.5C67,42.1 65.3,39.3 62.8,36.9C60.6,34.8 58.1,33.4 55.2,32.7C54,32.4 52.8,32.2 51.6,32.2L50,32.2C49.5,32.2 49,32.3 48.5,32.3C47.5,32.4 46.5,32.6 45.6,32.9C42.5,33.9 39.9,35.5 37.8,37.9C34.9,41.2 33.5,45 33.4,49.4C33.4,50 33.4,50.6 33.5,51.2C33.6,52.2 33.8,53.2 34,54.2C34.9,57.3 36.5,60 38.9,62.2C40.8,64 43.1,65.3 45.7,66.1C47.2,66.6 48.7,66.8 50.3,66.9L51.8,66.9C52.5,66.9 53.3,66.8 54,66.6C55.7,66.3 57.3,65.7 58.9,64.9C62.5,63 65.1,60.2 66.8,56.4C67.6,54.6 68,52.7 68.2,50.8C68.3,50.1 68.3,49.3 68.2,48.5M66.3,50.7C66.2,52.4 65.8,54.1 65.1,55.7C63.6,59 61.3,61.5 58.1,63.2C56.7,63.9 55.3,64.4 53.8,64.7C53.2,64.8 52.5,64.9 51.9,64.9L50.5,64.9C49.1,64.8 47.7,64.6 46.4,64.2C44.1,63.5 42.1,62.3 40.4,60.7C38.3,58.7 36.9,56.4 36.1,53.6C35.9,52.7 35.7,51.9 35.6,51C35.6,50.5 35.5,49.9 35.5,49.4C35.6,45.5 36.8,42.1 39.4,39.2C41.3,37.1 43.6,35.6 46.3,34.7C47.2,34.4 48,34.2 48.9,34.1C49.3,34 49.8,34 50.2,34L51.6,34C52.7,34 53.8,34.2 54.8,34.5C57.4,35.2 59.6,36.4 61.5,38.2C63.7,40.3 65.2,42.9 65.9,45.8C66.1,46.7 66.2,47.5 66.3,48.4L66.3,50.7" style="fill:white;fill-rule:nonzero;"/>
            <path d="M61.3,55.6C60.4,54.7 59.3,54.2 58.1,53.8C57.2,53.5 56.2,53.4 55.2,53.4C54.7,53.4 54.3,53.4 53.8,53.5C52.7,53.7 51.7,54.3 50.9,55C50.9,55 50.8,55.1 50.7,55.1L50.8,55.1C51.1,55.2 51.4,55.2 51.8,55.3C53,55.6 54.1,56.1 55.2,56.6C55.6,56.8 56,57 56.5,57.1C57.2,57.3 57.9,57.5 58.6,57.6C59.1,57.7 59.5,57.7 60,57.7C60.5,57.7 60.9,57.6 61.4,57.6L62,57.6C62.2,57.6 62.3,57.5 62.4,57.3C62.5,57.2 62.5,57.1 62.4,57C62.1,56.6 61.7,56 61.3,55.6" style="fill:white;fill-rule:nonzero;"/>
            <path d="M60.7,59.3L60.1,59.3C59.4,59.3 58.8,59.3 58.1,59.2C57.4,59.1 56.7,58.9 56,58.7C55.5,58.5 55.1,58.3 54.6,58.1C53.5,57.6 52.4,57.1 51.2,56.8C50.6,56.7 50,56.5 49.4,56.5C48.8,56.5 48.1,56.5 47.5,56.6C46.7,56.7 46,57 45.2,57.3C45.1,57.3 45,57.4 44.9,57.4C44.8,57.4 44.8,57.5 44.8,57.5C44.1,58.5 43.5,59.6 43,60.8C43,60.9 43,60.9 42.9,61C45.9,63 49.1,63.7 52.6,63.3C55.8,62.9 58.5,61.5 60.7,59.2L60.7,59.1C60.8,59.3 60.7,59.3 60.7,59.3" style="fill:white;fill-rule:nonzero;"/>
        </g>
    </g>
</svg>
