<?xml version="1.0" encoding="UTF-8"?>
<svg width="25px" height="24px" viewBox="0 0 25 24" version="1.1" xmlns="http://www.w3.org/2000/svg" xmlns:xlink="http://www.w3.org/1999/xlink">
    <title>8ADB0CCA-BCA3-470C-97A3-83697D6C4318</title>
    <g id="UI-Kit" stroke="none" stroke-width="1" fill="none" fill-rule="evenodd">
        <g id="EVC_UIKit_Icons" transform="translate(-484.000000, -807.000000)" fill="#252525" fill-rule="nonzero">
            <g id="noun_atom_2030888-copy" transform="translate(484.000000, 807.000000)">
                <path d="M24.4976077,11.9961722 C24.4976077,10.0822967 23.1196172,8.24497608 20.6698565,6.94354067 C21.0143541,3.95789474 20.3636364,1.73779904 18.8708134,0.70430622 C16.9186603,-0.711961722 14.2009569,0.474641148 12.2488038,1.96746411 C9.64593301,-0.0229665072 7.23444976,-0.482296651 5.58851675,0.70430622 C4.09569378,1.77607656 3.48325359,3.99617225 3.78947368,6.94354067 C3.59808612,7.05837321 3.40669856,7.13492823 3.25358852,7.24976077 C3.44497608,7.40287081 3.59808612,7.63253589 3.75119617,7.86220096 C3.8277512,7.82392344 3.86602871,7.78564593 3.94258373,7.74736842 C4.1722488,9.12535885 4.55502392,10.5799043 5.1291866,11.9961722 C4.59330144,13.4124402 4.1722488,14.8287081 3.94258373,16.2066986 C1.9138756,15.0966507 0.765550239,13.5655502 0.765550239,11.9961722 C0.765550239,11.6133971 0.842105263,11.2688995 0.956937799,10.9244019 C0.727272727,10.8095694 0.497607656,10.6564593 0.306220096,10.5033493 C0.114832536,10.9626794 0,11.4602871 0,11.9961722 C0,13.9100478 1.37799043,15.7473684 3.78947368,17.0488038 C3.67464115,18.0440191 3.67464115,19.0009569 3.78947368,19.8047847 C4.01913876,19.6899522 4.28708134,19.6133971 4.55502392,19.6133971 C4.4784689,18.9244019 4.4784689,18.1971292 4.55502392,17.3933014 C5.89473684,18.0057416 7.3492823,18.4267943 8.91866029,18.6947368 C9.76076555,19.7665072 10.6794258,20.723445 11.6363636,21.5272727 C10.2200957,22.5607656 8.22966507,23.5942584 6.58373206,22.9435407 C6.43062201,23.1732057 6.23923445,23.3645933 6.00956938,23.5177033 C8,24.5129187 10.4497608,23.3645933 12.2488038,21.9866029 C14.2392344,23.4794258 16.8803828,24.6660287 18.9090909,23.2497608 C20.4019139,22.1779904 21.0143541,19.9578947 20.708134,17.0105263 C23.1196172,15.7473684 24.4976077,13.9100478 24.4976077,11.9961722 Z M18.4497608,1.31674641 C19.6363636,2.15885167 20.1722488,4.07272727 19.9425837,6.59904306 C18.6028708,5.98660287 17.1100478,5.56555024 15.5789474,5.29760766 C14.6985646,4.22583732 13.7799043,3.23062201 12.861244,2.46507177 C14.4688995,1.2784689 16.8038278,0.168421053 18.4497608,1.31674641 Z M14.4688995,5.14449761 C13.0143541,4.99138756 11.5215311,4.99138756 10.0287081,5.14449761 C10.7559809,4.34066986 11.4832536,3.57511962 12.2488038,2.96267943 C13.0143541,3.57511962 13.7416268,4.30239234 14.4688995,5.14449761 Z M6.04784689,1.31674641 C7.38755981,0.359808612 9.41626794,0.780861244 11.6363636,2.46507177 C10.6794258,3.26889952 9.76076555,4.22583732 8.91866029,5.29760766 C7.3492823,5.52727273 5.85645933,5.98660287 4.55502392,6.59904306 C4.32535885,4.07272727 4.86124402,2.15885167 6.04784689,1.31674641 Z M4.63157895,7.40287081 C5.70334928,6.86698565 6.92822967,6.48421053 8.22966507,6.21626794 C7.19617225,7.6708134 6.27751196,9.2784689 5.55023923,10.9244019 C5.09090909,9.73779904 4.82296651,8.55119617 4.63157895,7.40287081 Z M4.63157895,16.5894737 C4.784689,15.4411483 5.09090909,14.2545455 5.51196172,13.0296651 C6.23923445,14.6755981 7.15789474,16.2832536 8.19138756,17.737799 C6.92822967,17.508134 5.70334928,17.1253589 4.63157895,16.5894737 Z M5.93301435,11.9961722 C6.77511962,9.89090909 7.96172249,7.82392344 9.33971292,6.02488038 C11.2535885,5.7569378 13.2822967,5.7569378 15.1961722,6.02488038 C15.4641148,6.4076555 15.7320574,6.75215311 16,7.13492823 C16.1913876,6.94354067 16.3827751,6.82870813 16.6124402,6.7138756 C16.4976077,6.56076555 16.3827751,6.36937799 16.2679426,6.21626794 C16.7272727,6.29282297 17.1866029,6.4076555 17.6076555,6.56076555 C17.6076555,6.56076555 17.6076555,6.56076555 17.6076555,6.56076555 C17.9904306,6.67559809 18.3349282,6.79043062 18.6794258,6.90526316 C18.6794258,6.90526316 18.6794258,6.90526316 18.6794258,6.90526316 C19.062201,7.05837321 19.4449761,7.21148325 19.8277512,7.40287081 C19.7894737,7.74736842 19.7129187,8.09186603 19.6363636,8.47464115 C19.6363636,8.47464115 19.6363636,8.47464115 19.6363636,8.47464115 C19.5215311,9.01052632 19.3684211,9.54641148 19.215311,10.1205742 L19.215311,10.1205742 C19.138756,10.4267943 19.0239234,10.6947368 18.9473684,11.0009569 C18.8708134,10.8478469 18.8325359,10.7330144 18.7559809,10.5799043 C18.5263158,10.7330144 18.2966507,10.8095694 18.0669856,10.8861244 C18.2583732,11.2688995 18.4114833,11.6516746 18.5645933,12.0344498 C17.722488,14.1397129 16.5358852,16.2066986 15.1578947,18.0057416 C13.2440191,18.2736842 11.215311,18.2736842 9.30143541,18.0057416 C7.96172249,16.1684211 6.77511962,14.1014354 5.93301435,11.9961722 Z M19.8660287,16.5894737 C18.7942584,17.0870813 17.569378,17.508134 16.2679426,17.737799 C17.3014354,16.2832536 18.2200957,14.6755981 18.9473684,13.0296651 C19.4066986,14.2545455 19.7129187,15.4794258 19.8660287,16.5894737 Z M10.0287081,18.8095694 C11.4832536,18.9626794 12.9760766,18.9626794 14.4688995,18.8095694 C13.7416268,19.6516746 13.0143541,20.4172249 12.2488038,21.0296651 C11.4832536,20.4172249 10.7559809,19.6516746 10.0287081,18.8095694 Z M18.4497608,22.6755981 C17.1100478,23.6325359 15.0813397,23.2114833 12.861244,21.5272727 C13.8181818,20.723445 14.7368421,19.7665072 15.5789474,18.6947368 C17.1483254,18.4267943 18.6411483,18.0057416 19.9425837,17.3933014 C20.1722488,19.9196172 19.6363636,21.7952153 18.4497608,22.6755981 Z M20.5933014,16.2066986 C20.3636364,14.8669856 19.9808612,13.4124402 19.4066986,11.9961722 C19.9425837,10.5799043 20.3636364,9.12535885 20.5933014,7.74736842 C22.6220096,8.89569378 23.7703349,10.4267943 23.7703349,11.9961722 C23.7703349,13.5655502 22.5837321,15.0583732 20.5933014,16.2066986 Z" id="Shape"></path>
                <path d="M1.79904306,10.3119617 C2.60287081,10.3119617 3.215311,9.66124402 3.215311,8.89569378 C3.215311,8.13014354 2.5645933,7.47942584 1.79904306,7.47942584 C1.03349282,7.47942584 0.38277512,8.13014354 0.38277512,8.89569378 C0.38277512,9.66124402 1.03349282,10.3119617 1.79904306,10.3119617 Z" id="Path"></path>
                <path d="M17.492823,10.1588517 C19.4449761,10.1588517 19.3301435,7.32631579 17.492823,7.32631579 C16.6889952,7.32631579 16.076555,7.97703349 16.076555,8.74258373 C16.076555,9.66124402 16.8038278,10.1588517 17.492823,10.1588517 Z" id="Path"></path>
                <path d="M4.74641148,20.3406699 C3.94258373,20.3406699 3.33014354,20.9913876 3.33014354,21.7569378 C3.33014354,22.522488 3.98086124,23.1732057 4.74641148,23.1732057 C5.51196172,23.1732057 6.16267943,22.522488 6.16267943,21.7569378 C6.16267943,20.9913876 5.51196172,20.3406699 4.74641148,20.3406699 Z" id="Path"></path>
                <path d="M15.5406699,11.9961722 C15.5406699,10.1971292 14.0861244,8.70430622 12.2488038,8.70430622 C10.4497608,8.70430622 8.9569378,10.1971292 8.9569378,11.9961722 C8.9569378,13.7952153 10.4114833,15.2880383 12.2488038,15.2880383 C14.0478469,15.2880383 15.5406699,13.7952153 15.5406699,11.9961722 Z" id="Path"></path>
            </g>
        </g>
    </g>
</svg>