<?xml version="1.0" encoding="UTF-8"?>
<svg width="67px" height="56px" viewBox="0 0 67 56" version="1.1" xmlns="http://www.w3.org/2000/svg" xmlns:xlink="http://www.w3.org/1999/xlink">
    <title>F71F073C-B669-43E6-BB6F-097B52FFC494</title>
    <g id="UI-Kit" stroke="none" stroke-width="1" fill="none" fill-rule="evenodd">
        <g id="EVC_UIKit_Icons" transform="translate(-963.000000, -484.000000)" fill="#252525" fill-rule="nonzero">
            <g id="noun_Brochure_1613896" transform="translate(963.000000, 484.000000)">
                <path d="M65.9866667,0.373333333 C65.7066667,0.186666667 65.24,0.0933333333 64.96,0.28 L43.2133333,8.21333333 L21.0933333,0.28 C21,0.28 20.9066667,0.28 20.8133333,0.186666667 C20.8133333,0.186666667 20.72,0.186666667 20.72,0.186666667 C20.72,0.186666667 20.72,0.186666667 20.72,0.186666667 C20.5333333,0.186666667 20.44,0.186666667 20.2533333,0.28 L20.2533333,0.28 C20.2533333,0.28 20.2533333,0.28 20.2533333,0.28 L1.49333333,7.93333333 C1.02666667,8.12 0.746666667,8.49333333 0.746666667,9.05333333 L0.746666667,54.6933333 C0.746666667,55.0666667 0.933333333,55.44 1.30666667,55.6266667 C1.68,55.8133333 2.05333333,55.9066667 2.42666667,55.72 L20.8133333,47.7866667 L42.84,55.72 C42.9333333,55.72 43.12,55.8133333 43.2133333,55.8133333 C43.4,55.8133333 43.4933333,55.8133333 43.68,55.72 L65.8,45.8266667 C66.2666667,45.64 66.4533333,45.2666667 66.4533333,44.8 L66.4533333,1.30666667 C66.4533333,0.933333333 66.2666667,0.56 65.9866667,0.373333333 Z M21.84,2.98666667 L42.0933333,10.2666667 L42.0933333,53.0133333 L21.84,45.7333333 L21.84,2.98666667 Z M3.08,9.8 L19.5066667,3.08 L19.5066667,45.8266667 L3.08,52.92 L3.08,9.8 Z M64.12,43.96 L44.3333333,52.8266667 L44.3333333,10.2666667 L64.12,3.08 L64.12,43.96 Z" id="Shape"></path>
            </g>
        </g>
    </g>
</svg>