<?xml version="1.0" encoding="UTF-8"?>
<svg width="26px" height="23px" viewBox="0 0 26 23" version="1.1" xmlns="http://www.w3.org/2000/svg" xmlns:xlink="http://www.w3.org/1999/xlink">
    <title>F205F156-81ED-4958-AEDD-6287A59AAAE0</title>
    <g id="UI-Kit" stroke="none" stroke-width="1" fill="none" fill-rule="evenodd">
        <g id="EVC_UIKit_Icons" transform="translate(-410.000000, -807.000000)" fill="#252525" fill-rule="nonzero">
            <g id="noun_Business_1162300-Copy" transform="translate(410.000000, 807.000000)">
                <path d="M3.60103359,17.3034884 L0.779328165,17.3034884 C0.42997416,17.3034884 0.134366925,17.5976744 0.134366925,17.9453488 L0.134366925,22.1976744 C0.134366925,22.5453488 0.42997416,22.8395349 0.779328165,22.8395349 L3.60103359,22.8395349 C3.9503876,22.8395349 4.24599483,22.5453488 4.24599483,22.1976744 L4.24599483,17.9453488 C4.27286822,17.5976744 3.97726098,17.3034884 3.60103359,17.3034884 Z" id="Path"></path>
                <path d="M10.0237726,13.2116279 L7.20206718,13.2116279 C6.85271318,13.2116279 6.55710594,13.505814 6.55710594,13.8534884 L6.55710594,22.2244186 C6.55710594,22.572093 6.85271318,22.8662791 7.20206718,22.8662791 L10.0237726,22.8662791 C10.3731266,22.8662791 10.6687339,22.572093 10.6687339,22.2244186 L10.6687339,13.8534884 C10.6687339,13.4790698 10.4,13.2116279 10.0237726,13.2116279 Z" id="Path"></path>
                <path d="M16.4465116,9.09302326 L13.6248062,9.09302326 C13.2754522,9.09302326 12.979845,9.3872093 12.979845,9.73488372 L12.979845,22.1976744 C12.979845,22.5453488 13.2754522,22.8395349 13.6248062,22.8395349 L16.4465116,22.8395349 C16.7958656,22.8395349 17.0914729,22.5453488 17.0914729,22.1976744 L17.0914729,9.73488372 C17.0914729,9.3872093 16.7958656,9.09302326 16.4465116,9.09302326 Z" id="Path"></path>
                <path d="M25.5028424,4.57325581 L21.9555556,0.374418605 C21.6868217,0.0802325581 21.2299742,0.0802325581 20.9612403,0.374418605 L17.4139535,4.57325581 C17.0645995,5.00116279 17.3602067,5.64302326 17.8976744,5.64302326 L19.402584,5.64302326 L19.402584,22.2244186 C19.402584,22.572093 19.6981912,22.8662791 20.0475452,22.8662791 L22.8692506,22.8662791 C23.2186047,22.8662791 23.5142119,22.572093 23.5142119,22.2244186 L23.5142119,5.64302326 L25.0191214,5.64302326 C25.5565891,5.64302326 25.8790698,5.00116279 25.5028424,4.57325581 Z" id="Path"></path>
            </g>
        </g>
    </g>
</svg>