<?xml version="1.0" encoding="UTF-8"?>
<svg width="54px" height="58px" viewBox="0 0 54 58" version="1.1" xmlns="http://www.w3.org/2000/svg" xmlns:xlink="http://www.w3.org/1999/xlink">
    <title>3091F48D-E295-41CF-AD84-1B88D737CE0B</title>
    <g id="UI-Kit" stroke="none" stroke-width="1" fill="none" fill-rule="evenodd">
        <g id="EVC_UIKit_Icons" transform="translate(-109.000000, -483.000000)" fill="#252525" fill-rule="nonzero" stroke="#FFFFFF" stroke-width="0.1">
            <g id="noun_Calendar_3824111" transform="translate(110.000000, 484.000000)">
                <path d="M48.125,4.375 L39.375,4.375 L39.375,3.0625 C39.375,1.37112795 38.003872,0 36.3125,0 C34.621128,0 33.25,1.37112795 33.25,3.0625 L33.25,4.375 L27.125,4.375 L27.125,3.0625 C27.125,1.37112795 25.753872,0 24.0625,0 C22.371128,0 21,1.37112795 21,3.0625 L21,4.375 L14.875,4.375 L14.875,3.0625 C14.875,1.37112798 13.503872,0 11.8125,0 C10.121128,0 8.75000004,1.37112798 8.75,3.0625 L8.75,4.375 L4.375,4.375 C1.95993353,4.37784475 0.00284474619,6.33493353 0,8.75 L0,48.125 C0,48.6082492 0.391750844,49 0.875,49 L44.625,49 C45.1082492,49 45.5,48.6082492 45.5,48.125 L45.5,8.75 C45.5,7.30025253 46.6752525,6.125 48.125,6.125 C49.5747475,6.125 50.75,7.30025253 50.75,8.75 L50.75,54.25 L5.25,54.25 C4.76675084,54.25 4.375,54.6417508 4.375,55.125 C4.375,55.6082492 4.76675084,56 5.25,56 L51.625,56 C52.1082492,56 52.5,55.6082492 52.5,55.125 L52.5,8.75 C52.4971553,6.33493353 50.5400665,4.37784475 48.125,4.375 Z M35,3.0625 C35,2.33762627 35.5876263,1.75 36.3125,1.75 C37.0373737,1.75 37.625,2.33762627 37.625,3.0625 L37.625,4.375 L35,4.375 L35,3.0625 Z M22.75,3.0625 C22.75,2.33762627 23.3376263,1.75 24.0625,1.75 C24.7873737,1.75 25.375,2.33762627 25.375,3.0625 L25.375,4.375 L22.75,4.375 L22.75,3.0625 Z M10.5,3.0625 C10.5,2.33762627 11.0876263,1.75 11.8125,1.75 C12.5373737,1.75 13.125,2.33762627 13.125,3.0625 L13.125,4.375 L10.5,4.375 L10.5,3.0625 Z M4.375,6.125 L8.75,6.125 L8.75,9.1875 C8.75,10.878872 10.121128,12.2499999 11.8125,12.2499999 C13.503872,12.2499999 14.875,10.878872 14.875,9.1875 L14.875,8.75 C14.875,8.26675084 14.4832492,7.875 14,7.875 C13.5167508,7.875 13.125,8.26675084 13.125,8.75 L13.125,9.1875 C13.125,9.91237373 12.5373737,10.5 11.8125,10.5 C11.0876263,10.5 10.5,9.91237373 10.5,9.1875 L10.5,6.125 L21,6.125 L21,9.1875 C21,10.878872 22.371128,12.25 24.0625,12.25 C25.753872,12.25 27.125,10.878872 27.125,9.1875 L27.125,8.75 C27.125,8.26675084 26.7332492,7.875 26.25,7.875 C25.7667508,7.875 25.375,8.26675084 25.375,8.75 L25.375,9.1875 C25.375,9.91237373 24.7873737,10.5 24.0625,10.5 C23.3376263,10.5 22.75,9.91237373 22.75,9.1875 L22.75,6.125 L33.25,6.125 L33.25,9.1875 C33.25,10.878872 34.621128,12.25 36.3125,12.25 C38.003872,12.25 39.375,10.878872 39.375,9.1875 L39.375,8.75 C39.375,8.26675084 38.9832492,7.875 38.5,7.875 C38.0167508,7.875 37.625,8.26675084 37.625,8.75 L37.625,9.1875 C37.625,9.91237373 37.0373737,10.5 36.3125,10.5 C35.5876263,10.5 35,9.91237373 35,9.1875 L35,6.125 L44.6271,6.125 C44.0724738,6.88935737 43.7662729,7.80576084 43.75,8.75 L43.75,14 L1.75,14 L1.75,8.75 C1.75159137,7.30091221 2.92591221,6.12659137 4.375,6.125 Z M1.75,47.25 L1.75,15.75 L43.75,15.75 L43.75,47.25 L1.75,47.25 Z M24.338475,20.6521875 C24.2081801,20.3514378 23.9207313,20.1487252 23.5936941,20.1269584 C23.2666568,20.1051915 22.9548785,20.2680209 22.785875,20.54885 L20.202175,24.8376625 L14.2529625,27.4120875 C12.1267814,28.331184 10.86987,30.5507726 11.1753465,32.8468712 C11.480823,35.1429697 13.2743367,36.9567251 15.5668625,37.28795 L19.175275,42.4981375 C19.4128337,42.8409227 19.8591906,42.968584 20.242075,42.80325 L23.6271,41.3385875 C23.8676397,41.2344046 24.0488437,41.0279253 24.120913,40.7758946 C24.1929823,40.5238639 24.1483336,40.252801 23.9992375,40.0372 L22.8004875,38.306625 C24.0467688,37.5620256 24.4877168,35.9693495 23.8018375,34.6898125 L23.74785,34.5879625 L24.3138875,34.3429625 L29.2095125,35.3964625 C29.2698548,35.4097462 29.3314757,35.4163485 29.3932625,35.41615 C29.6880387,35.4162378 29.9630469,35.2678967 30.1248752,35.0215136 C30.2867035,34.7751305 30.3135986,34.4638248 30.196425,34.1933375 L24.338475,20.6521875 Z M13.162625,33.5251875 C12.4113332,31.7879043 13.2104596,29.7705017 14.947625,29.0189375 L20.3504875,26.6804125 L23.073225,32.9735875 C22.7021375,33.13415 18.17235,35.0940625 17.9655875,35.1836625 C17.4756523,35.435221 16.9355231,35.573662 16.3849875,35.5887875 C14.9916275,35.6185589 13.7184642,34.8032255 13.162625,33.5251875 L13.162625,33.5251875 Z M20.2057625,40.9122 L17.6175125,37.174725 C17.9397247,37.0875134 18.2541184,36.9736327 18.5574375,36.8342625 L19.4004125,36.469475 L21.9527875,40.156025 L20.2057625,40.9122 Z M22.2565,35.510125 C22.3846597,35.7485745 22.4086918,36.0293556 22.3229173,36.2861158 C22.2371429,36.5428761 22.0491721,36.7528344 21.803425,36.866375 L21.037975,35.76125 L22.1375,35.2851625 L22.2565,35.510125 Z M24.8486875,32.6682125 L21.7884625,25.59515 L23.4072125,22.9081125 L27.915475,33.3277875 L24.8486875,32.6682125 Z M28.3742375,25.9910875 L31.75935,24.52625 C32.046308,24.4021605 32.377669,24.4405873 32.6286127,24.6270554 C32.8795563,24.8135235 33.0119582,25.119704 32.9759439,25.4302617 C32.9399296,25.7408193 32.7409705,26.008573 32.4540125,26.1326625 L29.0689875,27.5975 C28.7820295,27.7216051 28.4506601,27.6831928 28.199703,27.4967325 C27.9487458,27.3102722 27.8163272,27.0040917 27.852328,26.6935262 C27.8883287,26.3829607 28.0872795,26.1151926 28.3742375,25.9910875 Z M26.9913,24.68375 C26.8026742,24.5485262 26.6754987,24.343903 26.637756,24.1149037 C26.6000134,23.8859044 26.654796,23.6512917 26.79005,23.4626875 L28.87885,20.549725 C29.1605843,20.1570851 29.7072726,20.0671782 30.0999125,20.3489125 C30.4925524,20.6306468 30.5824593,21.1773351 30.300725,21.569975 L28.211925,24.4829375 C28.0767445,24.671504 27.872162,24.7986132 27.6432241,24.8362772 C27.4142863,24.8739412 27.1797653,24.8190716 26.9913,24.68375 L26.9913,24.68375 Z M34.3625625,30.202025 C34.2988311,30.6808463 33.8591469,31.0174439 33.3802875,30.954 L29.8269125,30.4822875 C29.5129789,30.445922 29.2430505,30.2430974 29.1207606,29.9516837 C28.9984707,29.66027 29.0428254,29.3255584 29.2367956,29.0760543 C29.4307659,28.8265502 29.7442051,28.7010311 30.056775,28.7476875 L33.61015,29.2194 C33.8402444,29.2498973 34.0487939,29.3705663 34.1899046,29.5548521 C34.3310154,29.7391379 34.3931239,29.9719392 34.3625625,30.202025 L34.3625625,30.202025 Z" id="Shape"></path>
            </g>
        </g>
    </g>
</svg>