<?xml version="1.0" encoding="UTF-8"?>
<svg width="52px" height="60px" viewBox="0 0 52 60" version="1.1" xmlns="http://www.w3.org/2000/svg" xmlns:xlink="http://www.w3.org/1999/xlink">
    <title>F257EB31-9AE6-4458-A277-F1CC40830513</title>
    <g id="UI-Kit" stroke="none" stroke-width="1" fill="none" fill-rule="evenodd">
        <g id="EVC_UIKit_Icons" transform="translate(-537.000000, -482.000000)" fill="#252525" fill-rule="nonzero" stroke="#252525" stroke-width="0.6">
            <g id="noun_Certificate_184105-Copy" transform="translate(537.000000, 483.000000)">
                <path d="M42.0817544,39.5798702 C37.0408571,39.5798702 32.9408351,43.6809858 32.9408351,48.7218302 C32.9408351,53.7627391 37.0408571,57.8627591 42.0817544,57.8627591 C47.1225975,57.8627591 51.2226729,53.7627391 51.2226729,48.7218302 C51.2226729,43.6809858 47.1225975,39.5798702 42.0817544,39.5798702 Z M42.0817544,40.8687591 C46.4260375,40.8687591 49.9338137,44.3775658 49.9338137,48.7218302 C49.9338137,53.0661591 46.4260375,56.5739347 42.0817544,56.5739347 C37.7374171,56.5739347 34.229695,53.0661591 34.229695,48.7218302 C34.229695,44.3775658 37.7374171,40.8687591 42.0817544,40.8687591 Z" id="Shape"></path>
                <path d="M41.43694,44.0116502 L41.43694,45.3722658 C40.6511689,45.6547258 40.0908244,46.425288 40.0914044,47.3094013 C40.0914044,48.4204236 40.9722311,49.3653724 42.08016,49.3660813 C42.3517933,49.3666613 42.6054467,49.5347324 42.7220911,49.8292436 C42.8389933,50.1247213 42.7710689,50.4705302 42.5647178,50.687708 C42.3581733,50.9048858 42.0782911,50.9606302 41.8208356,50.8488191 C41.56338,50.7369436 41.37778,50.4589947 41.37778,50.1338724 L40.0888911,50.1338724 C40.0888911,50.9521236 40.5598511,51.7054147 41.3085667,52.0307302 C41.3504556,52.0487747 41.3941489,52.0597302 41.43694,52.0745524 L41.43694,53.4314302 L42.7258289,53.4314302 L42.7258289,52.0745524 C43.0131222,51.972988 43.2803733,51.8056902 43.4986467,51.5761391 C44.0615044,50.9842169 44.2212622,50.1149258 43.9203067,49.3545458 C43.6198667,48.5953902 42.8948667,48.0773213 42.08016,48.0769991 C41.7029667,48.0767413 41.3793911,47.7574191 41.3790689,47.309208 C41.3788111,46.8609969 41.7017422,46.5409658 42.0788711,46.540128 C42.456,46.5396124 42.7798333,46.8571947 42.7812511,47.3054058 L44.07014,47.2989613 C44.0636956,46.4176836 43.5078622,45.6511169 42.7258289,45.3693658 L42.7258289,44.0087502 L41.43694,44.0087502 L41.43694,44.0116502 Z" id="Path"></path>
                <path d="M0.33292,0.137292444 C0.33292,16.9813947 0.33292,33.8254324 0.33292,50.6695347 L31.5142356,50.6695347 L31.5142356,49.3806458 L1.61929556,49.3806458 L1.61929556,1.42618133 L41.4767022,1.42618133 L41.4767022,38.1493969 L42.7655911,38.1558413 L42.7655911,0.139934667 L0.33292,0.137292444 Z" id="Path"></path>
                <polygon id="Path" points="8.68807778 13.9985836 8.68807778 15.2874724 34.4117222 15.2874724 34.4117222 13.9985836"></polygon>
                <polygon id="Path" points="13.4987267 29.387208 13.4987267 30.6760969 29.6010089 30.6760969 29.6010089 29.387208"></polygon>
                <polygon id="Path" points="8.68807778 19.1276524 8.68807778 20.4165413 34.4117222 20.4165413 34.4117222 19.1276524"></polygon>
                <polygon id="Path" points="8.68807778 24.2580747 8.68807778 25.5469636 34.4117222 25.5469636 34.4117222 24.2580747"></polygon>
            </g>
        </g>
    </g>
</svg>