<?xml version="1.0" encoding="UTF-8"?>
<svg width="120px" height="130px" viewBox="0 0 120 130" version="1.1" xmlns="http://www.w3.org/2000/svg" xmlns:xlink="http://www.w3.org/1999/xlink">
    <title>C1CE7DC0-587B-4FE1-BAC2-3A4D7B2A0BD1</title>
    <g id="UI-Kit" stroke="none" stroke-width="1" fill="none" fill-rule="evenodd">
        <g id="EVC_UIKit_Icons" transform="translate(-293.000000, -616.000000)" fill="#007438" fill-rule="nonzero">
            <g id="Group-2" transform="translate(353.000000, 681.000000) scale(1, -1) translate(-353.000000, -681.000000) translate(293.000000, 616.000000)">
                <circle id="Oval" cx="1.2506671" cy="35.0542971" r="1.2506671"></circle>
                <circle id="Oval" cx="17.4877761" cy="35.0542971" r="1.24707323"></circle>
                <circle id="Oval" cx="33.7212913" cy="35.0542971" r="1.2506671"></circle>
                <path d="M48.707728,35.0542971 C48.7062787,34.548125 49.01007,34.0909846 49.4772953,33.8962722 C49.9445205,33.7015598 50.4830431,33.8076727 50.841477,34.1650765 C51.1999108,34.5224804 51.3075729,35.0606954 51.1142059,35.5284791 C50.9208389,35.9962627 50.4645745,36.3013704 49.9584003,36.3013704 C49.269077,36.3013704 48.709714,35.7436176 48.707728,35.0542971 L48.707728,35.0542971 Z" id="Path"></path>
                <circle id="Oval" cx="66.1919155" cy="35.0542971" r="1.2506671"></circle>
                <circle id="Oval" cx="82.4290245" cy="35.0542971" r="1.24707323"></circle>
                <circle id="Oval" cx="1.2506671" cy="48.3731829" r="1.2506671"></circle>
                <circle id="Oval" cx="17.4877761" cy="48.3731829" r="1.24707323"></circle>
                <circle id="Oval" cx="33.7212913" cy="48.3731829" r="1.2506671"></circle>
                <path d="M48.7077332,48.3731829 C48.7077332,47.6824586 49.267676,47.1225158 49.9584003,47.1225158 C50.6491247,47.1225158 51.2090674,47.6824586 51.2090674,48.3731829 C51.2090674,49.0639073 50.6491247,49.62385 49.9584003,49.62385 C49.267676,49.62385 48.7077332,49.0639073 48.7077332,48.3731829 L48.7077332,48.3731829 Z" id="Path"></path>
                <circle id="Oval" cx="66.1919155" cy="48.3731829" r="1.2506671"></circle>
                <circle id="Oval" cx="82.4290245" cy="48.3731829" r="1.24707323"></circle>
                <circle id="Oval" cx="1.2506671" cy="61.6956626" r="1.2506671"></circle>
                <circle id="Oval" cx="17.4877761" cy="61.6956626" r="1.24707323"></circle>
                <circle id="Oval" cx="33.7212913" cy="61.6956626" r="1.2506671"></circle>
                <path d="M48.707728,61.6956626 C48.707728,61.0049382 49.267676,60.4449955 49.9584003,60.4449955 C50.6491247,60.4449955 51.2090674,61.0049382 51.2090674,61.6956626 C51.2090674,62.386387 50.6491247,62.9463349 49.9584003,62.9463349 C49.62641,62.9472878 49.3077409,62.8158292 49.0729873,62.5810756 C48.8382337,62.346322 48.7067751,62.0276529 48.707728,61.6956626 Z" id="Path"></path>
                <circle id="Oval" cx="66.1919155" cy="61.6956626" r="1.2506671"></circle>
                <circle id="Oval" cx="82.4290245" cy="61.6956626" r="1.24707323"></circle>
                <circle id="Oval" cx="1.2506671" cy="75.0181423" r="1.2506671"></circle>
                <circle id="Oval" cx="17.4877761" cy="75.0181423" r="1.24707323"></circle>
                <circle id="Oval" cx="33.7212913" cy="75.0181423" r="1.2506671"></circle>
                <path d="M48.707728,75.0181423 C48.7062787,74.5119702 49.01007,74.0548297 49.4772953,73.8601174 C49.9445205,73.665405 50.4830431,73.7715178 50.841477,74.1289217 C51.1999108,74.4863256 51.3075729,75.0245406 51.1142059,75.4923242 C50.9208389,75.9601079 50.4645745,76.2652155 49.9584003,76.2652155 C49.269077,76.2652155 48.709714,75.7074627 48.707728,75.0181423 Z" id="Path"></path>
                <circle id="Oval" cx="66.1919155" cy="75.0181423" r="1.2506671"></circle>
                <circle id="Oval" cx="82.4290245" cy="75.0181423" r="1.24707323"></circle>
                <circle id="Oval" cx="1.2506671" cy="88.3370281" r="1.24707323"></circle>
                <circle id="Oval" cx="17.4877761" cy="88.3370281" r="1.24707323"></circle>
                <circle id="Oval" cx="33.7212913" cy="88.3370281" r="1.24707323"></circle>
                <path d="M48.7077332,88.3370281 C48.7077332,87.6463037 49.267676,87.086361 49.9584003,87.086361 C50.6491247,87.086361 51.2090674,87.6463037 51.2090674,88.3370281 C51.2090674,89.0277525 50.6491247,89.5876952 49.9584003,89.5876952 C49.267676,89.5876952 48.7077332,89.0277525 48.7077332,88.3370281 L48.7077332,88.3370281 Z" id="Path"></path>
                <circle id="Oval" cx="66.1919155" cy="88.3370281" r="1.24707323"></circle>
                <circle id="Oval" cx="82.4290245" cy="88.3370281" r="1.24707323"></circle>
                <circle id="Oval" cx="1.2506671" cy="101.659508" r="1.2506671"></circle>
                <circle id="Oval" cx="17.4877761" cy="101.659508" r="1.24707323"></circle>
                <circle id="Oval" cx="33.7212913" cy="101.659508" r="1.2506671"></circle>
                <path d="M48.707728,101.659508 C48.707728,100.968783 49.267676,100.408841 49.9584003,100.408841 C50.6491247,100.408841 51.2090674,100.968783 51.2090674,101.659508 C51.2090674,102.350232 50.6491247,102.91018 49.9584003,102.91018 C49.62641,102.911133 49.3077409,102.779674 49.0729873,102.544921 C48.8382337,102.310167 48.7067751,101.991498 48.707728,101.659508 Z" id="Path"></path>
                <circle id="Oval" cx="66.1919155" cy="101.659508" r="1.2506671"></circle>
                <circle id="Oval" cx="82.4290245" cy="101.659508" r="1.24707323"></circle>
                <circle id="Oval" cx="1.2506671" cy="114.981987" r="1.2506671"></circle>
                <circle id="Oval" cx="17.4877761" cy="114.981987" r="1.24707323"></circle>
                <circle id="Oval" cx="33.7212913" cy="114.981987" r="1.2506671"></circle>
                <path d="M48.707728,114.981987 C48.7062787,114.475815 49.01007,114.018675 49.4772953,113.823963 C49.9445205,113.62925 50.4830431,113.735363 50.841477,114.092767 C51.1999108,114.450171 51.3075729,114.988386 51.1142059,115.456169 C50.9208389,115.923953 50.4645745,116.229061 49.9584003,116.229061 C49.269077,116.229061 48.709714,115.671308 48.707728,114.981987 Z" id="Path"></path>
                <circle id="Oval" cx="66.1919155" cy="114.981987" r="1.2506671"></circle>
                <circle id="Oval" cx="82.4290245" cy="114.981987" r="1.24707323"></circle>
                <circle id="Oval" cx="1.2506671" cy="128.300873" r="1.2506671"></circle>
                <circle id="Oval" cx="17.4877761" cy="128.300873" r="1.24707323"></circle>
                <circle id="Oval" cx="33.7212913" cy="128.300873" r="1.2506671"></circle>
                <path d="M48.7077332,128.300873 C48.7077332,127.610149 49.267676,127.050206 49.9584003,127.050206 C50.6491247,127.050206 51.2090674,127.610149 51.2090674,128.300873 C51.2090674,128.991598 50.6491247,129.55154 49.9584003,129.55154 C49.267676,129.55154 48.7077332,128.991598 48.7077332,128.300873 L48.7077332,128.300873 Z" id="Path"></path>
                <circle id="Oval" cx="66.1919155" cy="128.300873" r="1.2506671"></circle>
                <circle id="Oval" cx="82.4290245" cy="128.300873" r="1.24707323"></circle>
                <rect id="Rectangle" x="97.1926465" y="16.0139687" width="1.70708871" height="8.72232484"></rect>
                <polygon id="Rectangle" transform="translate(98.046191, 20.375131) rotate(90.000000) translate(-98.046191, -20.375131) " points="97.1926465 16.0139687 98.8997352 16.0139687 98.8997352 24.7362936 97.1926465 24.7362936"></polygon>
                <rect id="Rectangle" x="113.609449" y="16.0139687" width="1.70708871" height="8.72232484"></rect>
                <polygon id="Rectangle" transform="translate(114.466587, 20.375131) rotate(90.000000) translate(-114.466587, -20.375131) " points="113.613043 16.0139687 115.320132 16.0139687 115.320132 24.7362936 113.613043 24.7362936"></polygon>
                <rect id="Rectangle" x="97.1926465" y="31.6437136" width="1.70708871" height="8.72232484"></rect>
                <polygon id="Rectangle" transform="translate(98.046191, 36.004876) rotate(90.000000) translate(-98.046191, -36.004876) " points="97.1926465 31.6437136 98.8997352 31.6437136 98.8997352 40.3660384 97.1926465 40.3660384"></polygon>
                <rect id="Rectangle" x="113.609449" y="31.6437136" width="1.70708871" height="8.72232484"></rect>
                <polygon id="Rectangle" transform="translate(114.466587, 36.004876) rotate(90.000000) translate(-114.466587, -36.004876) " points="113.613043 31.6437136 115.320132 31.6437136 115.320132 40.3660384 113.613043 40.3660384"></polygon>
                <rect id="Rectangle" x="65.2143826" y="0.384223903" width="1.70708871" height="8.72232484"></rect>
                <polygon id="Rectangle" transform="translate(66.071521, 4.745386) rotate(90.000000) translate(-66.071521, -4.745386) " points="65.2179765 0.384223903 66.9250652 0.384223903 66.9250652 9.10654874 65.2179765 9.10654874"></polygon>
                <rect id="Rectangle" x="81.634779" y="0.384223903" width="1.70708871" height="8.72232484"></rect>
                <polygon id="Rectangle" transform="translate(82.491917, 4.745386) rotate(90.000000) translate(-82.491917, -4.745386) " points="81.6383729 0.384223903 83.3454616 0.384223903 83.3454616 9.10654874 81.6383729 9.10654874"></polygon>
                <rect id="Rectangle" x="65.2143826" y="16.0139687" width="1.70708871" height="8.72232484"></rect>
                <polygon id="Rectangle" transform="translate(66.071521, 20.378725) rotate(90.000000) translate(-66.071521, -20.378725) " points="65.2179765 16.0175626 66.9250652 16.0175626 66.9250652 24.7398875 65.2179765 24.7398875"></polygon>
                <rect id="Rectangle" x="81.634779" y="16.0139687" width="1.70708871" height="8.72232484"></rect>
                <polygon id="Rectangle" transform="translate(82.491917, 20.375131) rotate(90.000000) translate(-82.491917, -20.375131) " points="81.6383729 16.0139687 83.3454616 16.0139687 83.3454616 24.7362936 81.6383729 24.7362936"></polygon>
            </g>
        </g>
    </g>
</svg>