<?xml version="1.0" encoding="UTF-8"?>
<svg width="16px" height="16px" viewBox="0 0 16 16" version="1.1" xmlns="http://www.w3.org/2000/svg" xmlns:xlink="http://www.w3.org/1999/xlink">
    <title>3A69AB7D-F730-433F-86D8-BF80EB66FD7A</title>
    <g id="UI-Kit" stroke="none" stroke-width="1" fill="none" fill-rule="evenodd">
        <g id="Component-List" transform="translate(-450.000000, -1362.000000)">
            <g id="Group-16" transform="translate(0.000000, 1024.000000)">
                <g id="Group-9" transform="translate(165.000000, 253.000000)">
                    <g id="Group-2-Copy" transform="translate(285.000000, 81.000000)">
                        <g id="calendar_today-24px-(4)-copy-2" transform="translate(0.000000, 4.000000)">
                            <polygon id="Path" points="0 0 16 0 16 16 0 16"></polygon>
                            <path d="M13.3333333,2 L12.6666667,2 L12.6666667,0.666666667 L11.3333333,0.666666667 L11.3333333,2 L4.66666667,2 L4.66666667,0.666666667 L3.33333333,0.666666667 L3.33333333,2 L2.66666667,2 C1.93333333,2 1.33333333,2.6 1.33333333,3.33333333 L1.33333333,14 C1.33333333,14.7333333 1.93333333,15.3333333 2.66666667,15.3333333 L13.3333333,15.3333333 C14.0666667,15.3333333 14.6666667,14.7333333 14.6666667,14 L14.6666667,3.33333333 C14.6666667,2.6 14.0666667,2 13.3333333,2 Z M13.3333333,14 L2.66666667,14 L2.66666667,5.33333333 L13.3333333,5.33333333 L13.3333333,14 Z" id="Shape" fill="#171738" fill-rule="nonzero"></path>
                        </g>
                    </g>
                </g>
            </g>
        </g>
    </g>
</svg>