<?xml version="1.0" encoding="UTF-8"?>
<svg width="56px" height="56px" viewBox="0 0 56 56" version="1.1" xmlns="http://www.w3.org/2000/svg" xmlns:xlink="http://www.w3.org/1999/xlink">
    <title>F7DAD941-A47C-4968-84C3-75FB46274D9D</title>
    <g id="UI-Kit" stroke="none" stroke-width="1" fill="none" fill-rule="evenodd">
        <g id="EVC_UIKit_Icons" transform="translate(-966.000000, -367.000000)" fill="#252525" fill-rule="nonzero">
            <g id="noun_education_3213355-copy" transform="translate(966.000000, 367.000000)">
                <path d="M45.5555556,11.1111111 L27.7777778,11.1111111 C27.1641111,11.1111111 26.6666667,10.6136667 26.6666667,10 C26.6666667,9.38633333 27.1641111,8.88888889 27.7777778,8.88888889 L45.5555556,8.88888889 C46.1691111,8.88888889 46.6666667,9.38633333 46.6666667,10 C46.6666667,10.6136667 46.1691111,11.1111111 45.5555556,11.1111111 Z" id="Path"></path>
                <path d="M45.5555556,20 L27.7777778,20 C27.1641111,20 26.6666667,19.5025556 26.6666667,18.8888889 C26.6666667,18.2752222 27.1641111,17.7777778 27.7777778,17.7777778 L45.5555556,17.7777778 C46.1691111,17.7777778 46.6666667,18.2752222 46.6666667,18.8888889 C46.6666667,19.5025556 46.1691111,20 45.5555556,20 Z" id="Path"></path>
                <path d="M45.5555556,28.8888889 L30,28.8888889 C29.3864444,28.8888889 28.8888889,28.3913333 28.8888889,27.7777778 C28.8888889,27.1641111 29.3864444,26.6666667 30,26.6666667 L45.5555556,26.6666667 C46.1691111,26.6666667 46.6666667,27.1641111 46.6666667,27.7777778 C46.6666667,28.3913333 46.1691111,28.8888889 45.5555556,28.8888889 Z" id="Path"></path>
                <path d="M45.5555556,37.7777778 L34.4444444,37.7777778 C33.8308889,37.7777778 33.3333333,37.2802222 33.3333333,36.6666667 C33.3333333,36.0531111 33.8308889,35.5555556 34.4444444,35.5555556 L45.5555556,35.5555556 C46.1691111,35.5555556 46.6666667,36.0531111 46.6666667,36.6666667 C46.6666667,37.2802222 46.1691111,37.7777778 45.5555556,37.7777778 Z" id="Path"></path>
                <path d="M45.5555556,46.6666667 L27.7777778,46.6666667 C27.1641111,46.6666667 26.6666667,46.1691111 26.6666667,45.5555556 C26.6666667,44.942 27.1641111,44.4444444 27.7777778,44.4444444 L45.5555556,44.4444444 C46.1691111,44.4444444 46.6666667,44.942 46.6666667,45.5555556 C46.6666667,46.1691111 46.1691111,46.6666667 45.5555556,46.6666667 Z" id="Path"></path>
                <path d="M54.4444444,55.5555556 L18.8888889,55.5555556 C18.2752222,55.5555556 17.7777778,55.058 17.7777778,54.4444444 L17.7777778,41.1111111 C17.7777778,40.726 17.9771111,40.3683333 18.3047778,40.1658889 C18.6323333,39.9635556 19.0413333,39.945 19.3857778,40.1172222 L26.6666667,43.7576667 L26.6666667,36.9288889 L17.8951111,19.3857778 C17.818,19.2314444 17.7777778,19.0613333 17.7777778,18.8888889 L17.7777778,1.11111111 C17.7777778,0.497444444 18.2752222,0 18.8888889,0 L54.4444444,0 C55.058,0 55.5555556,0.497444444 55.5555556,1.11111111 L55.5555556,54.4444444 C55.5555556,55.058 55.058,55.5555556 54.4444444,55.5555556 Z M20,53.3333333 L53.3333333,53.3333333 L53.3333333,2.22222222 L20,2.22222222 L20,18.6265556 L28.7715556,36.1697778 C28.8486667,36.324 28.8888889,36.4941111 28.8888889,36.6666667 L28.8888889,45.5555556 C28.8888889,45.9406667 28.6894444,46.2983333 28.362,46.5007778 C28.0343333,46.7031111 27.6254444,46.7216667 27.2808889,46.5494444 L20,42.909 L20,53.3333333 Z" id="Shape"></path>
                <path d="M27.7777778,46.6666667 C27.608,46.6666667 27.4377778,46.6277778 27.2808889,46.5493333 L18.392,42.1048889 C18.177,41.9973333 18.0026667,41.823 17.8951111,41.6078889 L0.117333333,6.05233333 C-0.157111111,5.50344444 0.0653333333,4.836 0.614222222,4.56155556 L9.50311111,0.117111111 C10.052,-0.157333333 10.7193333,0.0652222222 10.9938889,0.614 L28.7716667,36.1695556 C28.8487778,36.3237778 28.889,36.4938889 28.889,36.6664444 L28.889,45.5553333 C28.889,45.9404444 28.6895556,46.2981111 28.3621111,46.5005556 C28.1834444,46.611 27.9808889,46.6666667 27.7777778,46.6666667 Z M19.7171111,40.283 L26.6666667,43.7576667 L26.6666667,36.9288889 L9.50311111,2.60188889 L2.60188889,6.05255556 L19.7171111,40.283 Z" id="Shape"></path>
                <path d="M5.55644444,11.1113333 C5.14888889,11.1113333 4.75644444,10.8863333 4.56177778,10.4968889 C4.28733333,9.948 4.50977778,9.28055556 5.05866667,9.00611111 L11.7253333,5.67277778 C12.2744444,5.39833333 12.9416667,5.62088889 13.2161111,6.16966667 C13.4905556,6.71855556 13.2681111,7.386 12.7192222,7.66044444 L6.05255556,10.9937778 C5.893,11.0735556 5.72333333,11.1113333 5.55644444,11.1113333 Z" id="Path"></path>
            </g>
        </g>
    </g>
</svg>