<?xml version="1.0" encoding="UTF-8"?>
<svg width="32px" height="32px" viewBox="0 0 32 32" version="1.1" xmlns="http://www.w3.org/2000/svg" xmlns:xlink="http://www.w3.org/1999/xlink">
    <title>3018C176-5E48-4C0F-A568-9B4C969D1BF9</title>
    <g id="UI-Kit" stroke="none" stroke-width="1" fill="none" fill-rule="evenodd">
        <g id="EVC_UIKit_Icons" transform="translate(-101.000000, -1019.000000)">
            <g id="email-24px-(1)" transform="translate(101.000000, 1019.000000)">
                <path d="M26.6666667,5.33333333 L5.33333333,5.33333333 C3.86666667,5.33333333 2.68,6.53333333 2.68,8 L2.66666667,24 C2.66666667,25.4666667 3.86666667,26.6666667 5.33333333,26.6666667 L26.6666667,26.6666667 C28.1333333,26.6666667 29.3333333,25.4666667 29.3333333,24 L29.3333333,8 C29.3333333,6.53333333 28.1333333,5.33333333 26.6666667,5.33333333 Z M26.6666667,10.6666667 L16,17.3333333 L5.33333333,10.6666667 L5.33333333,8 L16,14.6666667 L26.6666667,8 L26.6666667,10.6666667 Z" id="Shape" fill="#252525" fill-rule="nonzero"></path>
                <polygon id="Path" points="0 0 32 0 32 32 0 32"></polygon>
            </g>
        </g>
    </g>
</svg>