<?xml version="1.0" encoding="UTF-8"?>
<svg width="25px" height="24px" viewBox="0 0 25 24" version="1.1" xmlns="http://www.w3.org/2000/svg" xmlns:xlink="http://www.w3.org/1999/xlink">
    <title>5312DF88-C33E-41FA-8EF7-EBF9DB45E4D3</title>
    <g id="UI-Kit" stroke="none" stroke-width="1" fill="none" fill-rule="evenodd">
        <g id="EVC_UIKit_Icons" transform="translate(-337.000000, -807.000000)" fill="#252525" fill-rule="nonzero">
            <g id="noun_Engineering_2030811-Copy" transform="translate(337.000000, 807.000000)">
                <path d="M15.7450797,11.4339269 L14.3580131,10.9465792 C14.2455483,10.5716963 14.0955951,10.1968135 13.8706654,9.82193065 L14.5079663,8.50984067 C14.5829428,8.35988754 14.5454545,8.17244611 14.4329897,8.09746954 L12.8209934,6.48547329 C12.7085286,6.37300843 12.5210872,6.33552015 12.4086223,6.41049672 L11.0965323,7.04779756 C10.7216495,6.86035614 10.3467666,6.710403 9.97188379,6.56044986 L9.48453608,5.17338332 C9.4470478,5.02343018 9.29709466,4.91096532 9.14714152,4.91096532 L6.86035614,4.91096532 C6.710403,4.91096532 6.56044986,5.02343018 6.48547329,5.17338332 L5.99812559,6.56044986 C5.62324274,6.67291471 5.24835989,6.82286785 4.87347704,7.04779756 L3.59887535,6.37300843 C3.44892221,6.29803187 3.29896907,6.33552015 3.14901593,6.447985 L1.53701968,8.05998126 C1.42455483,8.17244611 1.38706654,8.35988754 1.46204311,8.47235239 L2.09934396,9.78444236 C1.91190253,10.1593252 1.76194939,10.5342081 1.64948454,10.9090909 L0.262417994,11.3964386 C0.112464855,11.4714152 0,11.6213683 0,11.7713215 L0,14.0581068 C0,14.20806 0.112464855,14.3580131 0.262417994,14.4329897 L1.64948454,14.9203374 C1.76194939,15.2952202 1.91190253,15.6701031 2.13683224,16.0449859 L1.4995314,17.3570759 C1.42455483,17.5070291 1.46204311,17.6944705 1.57450797,17.8069353 L3.18650422,19.4189316 C3.29896907,19.5313964 3.4864105,19.5688847 3.63636364,19.4939082 L4.94845361,18.8566073 C5.32333646,19.0440487 5.69821931,19.1940019 6.07310216,19.343955 L6.56044986,20.7310216 C6.59793814,20.8809747 6.74789128,20.9934396 6.89784442,20.9934396 L9.1846298,20.9934396 C9.33458294,20.9934396 9.48453608,20.8809747 9.52202437,20.7310216 L10.0093721,19.343955 C10.3842549,19.2314902 10.7591378,19.081537 11.1340206,18.8566073 L12.4461106,19.4939082 C12.5960637,19.5688847 12.7460169,19.5313964 12.8584817,19.4189316 L14.470478,17.8069353 C14.5829428,17.6944705 14.6204311,17.5070291 14.5454545,17.3570759 L13.8706654,16.0074977 C14.0581068,15.6326148 14.20806,15.257732 14.3580131,14.8828491 L15.7450797,14.3955014 C15.8950328,14.3580131 16.0074977,14.20806 16.0074977,14.0206186 L16.0074977,11.7338332 C16.0074977,11.6213683 15.8950328,11.4714152 15.7450797,11.4339269 Z M7.98500469,16.1199625 C6.2230553,16.1199625 4.79850047,14.6954077 4.79850047,12.9334583 C4.79850047,11.1715089 6.2230553,9.74695408 7.98500469,9.74695408 C9.74695408,9.74695408 11.1715089,11.1715089 11.1715089,12.9334583 C11.1715089,14.6579194 9.74695408,16.1199625 7.98500469,16.1199625 Z" id="Shape"></path>
                <path d="M23.7300843,3.9737582 L22.9803187,3.71134021 C22.9053421,3.52389878 22.8303655,3.33645736 22.7553889,3.18650422 L23.0927835,2.4742268 C23.1677601,2.32427366 23.1302718,2.17432052 23.0178069,2.02436739 L22.1180881,1.08716026 C22.0056232,0.974695408 21.8181818,0.937207123 21.705717,1.01218369 L20.9934396,1.34957826 C20.8059981,1.27460169 20.656045,1.19962512 20.4686036,1.12464855 L20.2061856,0.374882849 C20.1686973,0.224929709 20.0187441,0.112464855 19.868791,0.112464855 L18.5192127,0.112464855 C18.3692596,0.112464855 18.2193065,0.224929709 18.1443299,0.374882849 L17.8819119,1.12464855 C17.6944705,1.19962512 17.5070291,1.27460169 17.3570759,1.34957826 L16.6447985,1.01218369 C16.4948454,0.937207123 16.3074039,0.974695408 16.1949391,1.08716026 L15.257732,2.02436739 C15.1452671,2.13683224 15.1077788,2.32427366 15.1827554,2.4742268 L15.52015,3.18650422 C15.4451734,3.37394564 15.3701968,3.52389878 15.2952202,3.71134021 L14.5454545,3.9737582 C14.3955014,4.01124649 14.2830366,4.16119963 14.2830366,4.31115276 L14.2830366,5.66073102 C14.2830366,5.81068416 14.3955014,5.9606373 14.5454545,5.99812559 L15.2952202,6.26054358 C15.3701968,6.447985 15.4451734,6.63542643 15.52015,6.82286785 L15.1827554,7.49765698 C15.1077788,7.64761012 15.1452671,7.83505155 15.257732,7.9475164 L16.1949391,8.88472352 C16.3074039,8.99718838 16.4948454,9.03467666 16.6447985,8.95970009 L17.3570759,8.62230553 C17.5445173,8.6972821 17.7319588,8.77225867 17.8819119,8.84723524 L18.1443299,9.59700094 C18.1818182,9.74695408 18.3317713,9.85941893 18.5192127,9.85941893 L19.868791,9.85941893 C20.0187441,9.85941893 20.1686973,9.74695408 20.2061856,9.59700094 L20.4686036,8.84723524 C20.656045,8.77225867 20.8434864,8.6972821 20.9934396,8.62230553 L21.705717,8.95970009 C21.8556701,9.03467666 22.0056232,8.99718838 22.1555764,8.88472352 L23.0927835,7.9475164 C23.2052484,7.83505155 23.2427366,7.64761012 23.1677601,7.49765698 L22.8303655,6.78537957 C22.9053421,6.59793814 22.9803187,6.41049672 23.0552952,6.2230553 L23.8050609,5.9606373 C23.9550141,5.92314902 24.0674789,5.77319588 24.0674789,5.62324274 L24.0674789,4.27366448 C23.9925023,4.16119963 23.8800375,4.01124649 23.7300843,3.9737582 Z M19.1565136,6.86035614 C18.1068416,6.86035614 17.2820993,6.03561387 17.2820993,4.98594189 C17.2820993,3.9737582 18.1068416,3.11152765 19.1565136,3.11152765 C20.1686973,3.11152765 21.0309278,3.93626992 21.0309278,4.98594189 C21.0309278,6.03561387 20.1686973,6.86035614 19.1565136,6.86035614 Z" id="Shape"></path>
                <path d="M23.7300843,16.1949391 L22.6804124,15.8200562 C22.6054358,15.52015 22.4929709,15.257732 22.3430178,14.995314 L22.8303655,13.9831303 C22.9053421,13.8331771 22.8678538,13.683224 22.7553889,13.5707591 L21.4807873,12.2961575 C21.3683224,12.1836926 21.180881,12.1462043 21.0309278,12.2211809 L20.0562324,12.7460169 C19.7938144,12.5960637 19.4939082,12.4835989 19.2314902,12.4086223 L18.8940956,11.3589503 C18.8566073,11.2089972 18.7066542,11.0965323 18.5192127,11.0965323 L16.7197751,11.0965323 C16.6447985,11.0965323 16.6073102,11.0965323 16.5323336,11.1340206 C16.6447985,11.321462 16.7197751,11.5463918 16.7197751,11.7713215 L16.7197751,14.0581068 C16.7197751,14.5454545 16.4198688,14.9578257 15.9700094,15.1077788 L14.9203374,15.4826617 C14.8453608,15.6701031 14.7703843,15.8575445 14.6954077,16.0074977 L15.1827554,16.9821931 C15.4076851,17.4320525 15.3327085,17.9194002 14.9578257,18.294283 L13.3458294,19.9062793 C13.158388,20.0937207 12.9334583,20.2061856 12.7085286,20.2436739 L12.371134,20.918463 C12.2961575,21.0684161 12.3336457,21.2183693 12.4461106,21.3308341 L13.7207123,22.6054358 C13.8331771,22.7179007 14.0206186,22.7553889 14.1705717,22.6804124 L15.1827554,22.1930647 C15.4451734,22.3430178 15.7450797,22.4554827 16.0074977,22.5304592 L16.3823805,23.5801312 C16.4198688,23.7300843 16.5698219,23.8425492 16.7572634,23.8425492 L18.556701,23.8425492 C18.7066542,23.8425492 18.8566073,23.7300843 18.9315839,23.5801312 L19.2689784,22.5304592 C19.5688847,22.4179944 19.8313027,22.3055295 20.0937207,22.1930647 L21.1059044,22.6804124 C21.2558575,22.7553889 21.4058107,22.7179007 21.5557638,22.6054358 L22.8303655,21.3308341 C22.9428304,21.2183693 22.9803187,21.0309278 22.9053421,20.918463 L22.4179944,19.9062793 C22.5679475,19.6438613 22.6804124,19.343955 22.7553889,19.081537 L23.8050609,18.7066542 C23.9550141,18.6691659 24.0674789,18.5192127 24.0674789,18.3317713 L24.0674789,16.5323336 C23.9925023,16.3823805 23.8800375,16.2699157 23.7300843,16.1949391 Z M17.9943768,19.9812559 C16.6073102,19.9812559 15.4826617,18.8566073 15.4826617,17.4695408 C15.4826617,16.0824742 16.6073102,14.9578257 17.9943768,14.9578257 C19.3814433,14.9578257 20.5060918,16.0824742 20.5060918,17.4695408 C20.5060918,18.8566073 19.3814433,19.9812559 17.9943768,19.9812559 Z" id="Shape"></path>
            </g>
        </g>
    </g>
</svg>