<?xml version="1.0" encoding="UTF-8"?>
<svg width="20px" height="32px" viewBox="0 0 20 32" version="1.1" xmlns="http://www.w3.org/2000/svg" xmlns:xlink="http://www.w3.org/1999/xlink">
    <title>1AF3EAC5-3CE0-4B38-954A-3FED46268726</title>
    <g id="UI-Kit" stroke="none" stroke-width="1" fill="none" fill-rule="evenodd">
        <g id="EVC_UIKit_Icons" transform="translate(-186.000000, -1112.000000)" fill="#007438" fill-rule="nonzero">
            <g id="facebook-logo-copy" transform="translate(186.000000, 1112.000000)">
                <path d="M17.4058548,0.00665813593 L13.0676164,0 C8.1937543,0 5.04405051,3.09103961 5.04405051,7.87524318 L5.04405051,11.5062576 L0.682145794,11.5062576 C0.30522544,11.5062576 0,11.7985498 0,12.1590878 L0,17.4200139 C0,17.780552 0.305573473,18.0725113 0.682145794,18.0725113 L5.04405051,18.0725113 L5.04405051,31.3475027 C5.04405051,31.7080407 5.34927595,32 5.7261963,32 L11.4172412,32 C11.7941616,32 12.099387,31.7077078 12.099387,31.3475027 L12.099387,18.0725113 L17.1994709,18.0725113 C17.5763913,18.0725113 17.8816167,17.780552 17.8816167,17.4200139 L17.8837049,12.1590878 C17.8837049,11.9859763 17.811662,11.8201887 17.6839336,11.697679 C17.5562053,11.5751693 17.3821885,11.5062576 17.2012111,11.5062576 L12.099387,11.5062576 L12.099387,8.42820137 C12.099387,6.94876356 12.4679546,6.19772583 14.4827209,6.19772583 L17.4051588,6.19672711 C17.7817311,6.19672711 18.0869565,5.90443494 18.0869565,5.54422979 L18.0869565,0.659155457 C18.0869565,0.29928321 17.7820791,0.00732394952 17.4058548,0.00665813593 Z" id="Path"></path>
            </g>
        </g>
    </g>
</svg>