<?xml version="1.0" encoding="UTF-8"?>
<svg width="49px" height="56px" viewBox="0 0 49 56" version="1.1" xmlns="http://www.w3.org/2000/svg" xmlns:xlink="http://www.w3.org/1999/xlink">
    <title>A2CE9C8A-0C3F-42F7-8524-5C2F18EE5715</title>
    <g id="UI-Kit" stroke="none" stroke-width="1" fill="none" fill-rule="evenodd">
        <g id="EVC_UIKit_Icons" transform="translate(-328.000000, -367.000000)" fill="#252525" fill-rule="nonzero">
            <g id="noun_finance_1800980" transform="translate(328.000000, 367.000000)">
                <path d="M0.25,55.25 C0.25,55.6641846 0.585815425,56 1,56 L39.6381836,56 C42.0013428,56 43.9239502,54.0773926 43.9239502,51.7142334 L43.9239502,38.6448975 L46.8598633,38.6448975 C48.039795,38.6448975 49,37.6846924 49,36.5047608 L49,31.3016358 C49,30.7687073 48.7970734,30.2867737 48.473526,29.9117737 C48.7970734,29.5367279 49,29.054657 49,28.5217285 L49,23.3186035 C49,22.7856751 48.7970734,22.3036042 48.473526,21.9285583 C48.7970734,21.5535583 49,21.0716248 49,20.5386963 L49,15.3355713 C49,14.8025971 48.7970276,14.3205261 48.4734345,13.9454346 C48.7970276,13.570343 49,13.0882721 49,12.5552979 L49,7.3525391 C49,6.17260745 48.039795,5.2124024 46.8598633,5.2124024 L43.9239502,5.2124024 L43.9239502,4.63928225 C43.9239502,2.27612308 42.0013428,0.353515625 39.6381836,0.353515625 L1,0.349941712 C0.585815425,0.349941712 0.25,0.535815425 0.25,0.95 L0.25,55.25 Z M1.75,54.5 L1.75,1.85351563 L6.0947266,1.85351563 L6.0947266,54.5 L1.75,54.5 Z M47.5,15.3355713 L47.5,20.5386963 C47.5,20.8913574 47.2128906,21.1784667 46.8598633,21.1784667 L43.9239502,21.1784667 L43.9239502,14.6954345 L46.8598633,14.6954345 C47.2128906,14.6954345 47.5,14.9825439 47.5,15.3355713 Z M47.5,23.3186035 L47.5,28.5217285 C47.5,28.8747559 47.2128906,29.1618652 46.8598633,29.1618652 L43.9239502,29.1618652 L43.9239502,22.6784668 L46.8598633,22.6784668 C47.2128906,22.6784668 47.5,22.9655762 47.5,23.3186035 Z M47.5,36.5047608 C47.5,36.8577881 47.2128906,37.1448975 46.8598633,37.1448975 L43.9239502,37.1448975 L43.9239502,30.6618652 L46.8598633,30.6618652 C47.2128906,30.6618652 47.5,30.9489746 47.5,31.3016358 L47.5,36.5047608 Z M46.8598633,6.71240233 C47.2128906,6.71240233 47.5,6.9995117 47.5,7.3525391 L47.5,12.5552979 C47.5,12.9083252 47.2128906,13.1954346 46.8598633,13.1954346 L43.9239502,13.1954346 L43.9239502,6.71240233 L46.8598633,6.71240233 L46.8598633,6.71240233 Z M42.4239502,4.63928225 L42.4239502,51.7142335 C42.4239502,53.2504883 41.1744385,54.5 39.6381836,54.5 L7.5947266,54.5 L7.5947266,1.85351563 L39.6381837,1.85351563 C41.1744385,1.85351563 42.4239502,3.10302733 42.4239502,4.63928225 Z" id="Shape"></path>
                <path d="M25.0552979,18.8229981 L25.1801758,18.8229981 C26.460083,18.8229981 27.5012207,19.859375 27.5012207,21.1330567 C27.5012207,22.4071045 26.460083,23.4434815 25.1801758,23.4434815 C23.9002685,23.4434815 22.8591308,22.4071045 22.8591308,21.1330567 C22.8591308,20.7188721 22.5233154,20.3830567 22.1091308,20.3830567 C21.6949463,20.3830567 21.3591308,20.7188721 21.3591308,21.1330567 C21.3591308,22.9326172 22.6204986,24.4362335 24.3052979,24.8331146 L24.3052979,25.524292 C24.3052979,25.9384765 24.6411133,26.274292 25.0552979,26.274292 C25.4694824,26.274292 25.8052979,25.9384765 25.8052979,25.524292 L25.8052979,24.8804473 C27.6141053,24.5806121 29.0012207,23.0205535 29.0012207,21.1330566 C29.0012207,19.0321045 27.2869874,17.322998 25.1801758,17.322998 L25.0552979,17.322998 C23.7753906,17.322998 22.7342529,16.2866211 22.7342529,15.0125732 C22.7342529,13.7388916 23.7753906,12.7025146 25.0552979,12.7025146 C26.3352051,12.7025146 27.3763428,13.7388916 27.3763428,15.0125732 C27.3763428,15.4267578 27.7121582,15.7625732 28.1263428,15.7625732 C28.5405274,15.7625732 28.8763428,15.4267578 28.8763428,15.0125732 C28.8763428,13.1677399 27.5540009,11.6268157 25.8052979,11.2781372 L25.8052979,10.6213379 C25.8052979,10.2071533 25.4694824,9.8713379 25.0552979,9.8713379 C24.6411133,9.8713379 24.3052979,10.2071533 24.3052979,10.6213379 L24.3052979,11.2781372 C22.5565949,11.6268158 21.2342529,13.1677399 21.2342529,15.0125732 C21.2342529,17.1135254 22.9484863,18.8229981 25.0552979,18.8229981 Z" id="Path"></path>
                <path d="M25.1175537,30.1876221 C31.6829834,30.1876221 37.02417,24.8464356 37.02417,18.2813721 C37.02417,11.7163086 31.6829835,6.37512208 25.1175537,6.37512208 C18.5524902,6.37512208 13.2113037,11.7163086 13.2113037,18.2813721 C13.2113037,24.8464356 18.5524902,30.1876221 25.1175537,30.1876221 Z M25.1175537,7.87512208 C30.8557129,7.87512208 35.52417,12.5432129 35.52417,18.2813721 C35.52417,24.0195313 30.8557129,28.6876221 25.1175537,28.6876221 C19.3793946,28.6876221 14.7113037,24.0195313 14.7113037,18.2813721 C14.7113037,12.5432129 19.3793946,7.87512208 25.1175537,7.87512208 Z" id="Shape"></path>
            </g>
        </g>
    </g>
</svg>