<?xml version="1.0" encoding="UTF-8"?>
<svg width="52px" height="57px" viewBox="0 0 52 57" version="1.1" xmlns="http://www.w3.org/2000/svg" xmlns:xlink="http://www.w3.org/1999/xlink">
    <title>38BE0F4A-6C02-4D79-8063-0D0EE1453D61</title>
    <g id="UI-Kit" stroke="none" stroke-width="1" fill="none" fill-rule="evenodd">
        <g id="EVC_UIKit_Icons" transform="translate(-752.000000, -484.000000)" fill-rule="nonzero">
            <g id="noun_education-grant_2575677-copy" transform="translate(752.000000, 484.000000)">
                <path d="M50.9959582,9.16641489 L25.8425561,0 L0,9.16641489 L9.12935793,12.830445 L9.12935793,19.669555 C9.12935793,23.1681893 16.912495,26.2366148 25.7851659,26.2366148 C34.6483505,26.2366148 42.4233524,23.1681893 42.4233524,19.669555 L42.4233524,12.7096767 L46.9627282,10.8334321 L46.9627282,20.7295563 C46.132917,21.0876316 45.5500751,21.9073827 45.5500751,22.8609053 C45.5500751,23.5836641 45.8807001,24.2373437 46.4163139,24.6706066 L45.4836428,28.8594683 L45.4614956,29.0610142 C45.4614956,30.4239588 46.529345,31.4922525 47.8927339,31.4922525 C49.2235915,31.4922525 50.3063507,30.4013581 50.3063507,29.0610142 L49.3639619,24.6699865 C49.8919588,24.2375103 50.2177805,23.584349 50.2177805,22.8609053 C50.2177805,21.9065405 49.6384925,21.0859935 48.813716,20.7284271 L48.813716,10.0683595 L50.9959582,9.16641489 Z M47.9844693,23.346246 C47.9763342,23.3480507 47.9442471,23.3525764 47.8927339,23.3525764 L47.832632,23.3570928 L47.6433398,23.2758618 C47.514205,23.1985827 47.4010628,23.0559541 47.4010628,22.8609053 C47.4010628,22.5997018 47.6215906,22.3873092 47.8927339,22.3873092 C48.1629702,22.3873092 48.3667835,22.590669 48.3667835,22.8609053 C48.3667835,23.0769074 48.2361771,23.2630899 47.9844693,23.346246 Z M47.8927339,29.6412554 C47.5890501,29.6412554 47.354066,29.4306675 47.3174625,29.1405422 L47.888671,26.5737277 L48.4503838,29.1387283 C48.414678,29.4261511 48.1824057,29.6412554 47.8927339,29.6412554 Z M40.5723461,19.669555 C40.5723461,21.3262344 34.4743567,24.3856178 25.7851566,24.3856178 C17.0855632,24.3856178 10.9803457,21.3262344 10.9803457,19.669555 L10.9803457,13.5824125 C28.3445395,20.5406342 4.85234241,11.1272316 25.8434538,19.5375975 L40.5723461,13.4730556 L40.5723461,19.669555 Z M25.8346431,17.5397331 L5.22941827,9.27486481 L25.8344117,1.96668433 L45.8876321,9.27486481 C18.4069252,20.6010785 27.8850572,16.6946511 25.8346431,17.5397331 Z" id="Shape" fill="#252525"></path>
                <path d="M26.8457613,42.8210608 L26.8457613,39.6911174 C27.7341474,39.7940421 28.5711312,40.0725246 29.3566481,40.5281012 L29.9915771,38.9616302 C29.0974252,38.3818979 27.9079097,38.0727907 26.8457613,38.0172052 L26.8457613,36.2962963 L25.5743855,36.2962963 L25.5743855,38.0474228 C23.1030916,38.2931426 22.0101057,39.6975496 22.0101057,41.2409109 C22.0101057,43.2795065 23.5980945,43.8977117 25.5743855,44.3708543 L25.5743855,47.4705154 C24.4946712,47.3761238 23.3002413,46.9631942 22.4747244,46.2930222 L21.7777778,47.8579661 C22.7191486,48.6790221 24.3261194,49.0604293 25.5743855,49.1444831 L25.5743855,50.8653365 L26.8457613,50.8653365 L26.8457613,49.1293512 C29.4042742,48.8571898 30.4410454,47.4272021 30.4410454,45.935863 C30.4410454,43.8808862 28.8132323,43.2853926 26.8457613,42.8210608 Z M25.5743855,42.4956277 C24.8053055,42.2771916 24.0094416,41.9460019 24.0094416,41.1470931 C24.0094416,40.287342 24.7146344,39.8723855 25.5743855,39.7365316 L25.5743855,42.4956277 Z M26.8457613,47.4402424 L26.8457613,44.6962874 C27.6330366,44.9178887 28.4576466,45.25676 28.4576466,46.0765666 C28.4576466,46.9330969 27.6991172,47.3104412 26.8457613,47.4402424 Z" id="Shape" fill="#252525"></path>
                <circle id="Oval" stroke="#252525" stroke-width="1.5" cx="25.9259259" cy="43.5555556" r="12.4444444"></circle>
            </g>
        </g>
    </g>
</svg>