<?xml version="1.0" encoding="UTF-8"?>
<svg width="26px" height="25px" viewBox="0 0 26 25" version="1.1" xmlns="http://www.w3.org/2000/svg" xmlns:xlink="http://www.w3.org/1999/xlink">
    <title>EC1BD396-C823-445B-809A-9AD064661625</title>
    <g id="UI-Kit" stroke="none" stroke-width="1" fill="none" fill-rule="evenodd">
        <g id="EVC_UIKit_Icons" transform="translate(-190.000000, -806.000000)" fill="#252525" fill-rule="nonzero">
            <g id="noun_Health_1423442-Copy" transform="translate(190.000000, 806.000000)">
                <path d="M23.0964706,2.54117647 C21.6282353,1.10117647 19.68,0.282352941 17.6188235,0.282352941 C15.84,0.282352941 14.0894118,0.875294118 12.7058824,2.00470588 C9.34588235,-0.705882353 4.43294118,-0.197647059 1.72235294,3.16235294 C-0.282352941,5.64705882 -0.564705882,9.14823529 1.01647059,11.9152941 L4.8,11.9152941 L8.72470588,5.11058824 L11.2941176,12.9035294 L14.1741176,7.79294118 L16.6023529,11.9435294 L18.9176471,11.9435294 C19.3976471,11.9435294 19.7647059,12.3105882 19.7647059,12.7905882 C19.7647059,13.2705882 19.3976471,13.6376471 18.9176471,13.6376471 L15.6423529,13.6376471 L14.2023529,11.2094118 L10.8705882,17.0541176 L8.27294118,9.23294118 L5.76,13.6094118 L2.31529412,13.6094118 L12.7058824,24 L23.1529412,13.5529412 C26.1741176,10.5035294 26.1458824,5.56235294 23.0964706,2.54117647 Z" id="Path"></path>
            </g>
        </g>
    </g>
</svg>