<?xml version="1.0" encoding="UTF-8"?>
<svg width="24px" height="24px" viewBox="0 0 24 24" version="1.1" xmlns="http://www.w3.org/2000/svg" xmlns:xlink="http://www.w3.org/1999/xlink">
    <title>CBB56D30-98C7-477D-BE90-489A8CA3F40D</title>
    <g id="UI-Kit" stroke="none" stroke-width="1" fill="none" fill-rule="evenodd">
        <g id="EVC_UIKit_Icons" transform="translate(-701.000000, -807.000000)" fill="#252525" fill-rule="nonzero">
            <g id="noun_improve_3522300" transform="translate(701.000000, 807.000000)">
                <path d="M24,23.4666667 C24,23.76 23.76,24 23.4666667,24 L21.8666667,24 L17.0666667,24 L14.4,24 L9.6,24 L6.93333333,24 L2.13333333,24 L0.533333333,24 C0.24,24 0,23.76 0,23.4666667 C0,23.1733333 0.24,22.9333333 0.533333333,22.9333333 L1.6,22.9333333 L1.6,13.1333333 C1.6,12.84 1.84,12.6 2.13333333,12.6 L6.93333333,12.6 C7.22666667,12.6 7.46666667,12.84 7.46666667,13.1333333 L7.46666667,22.9333333 L9.06666667,22.9333333 L9.06666667,10.2666667 C9.06666667,9.97333333 9.30666667,9.73333333 9.6,9.73333333 L14.4,9.73333333 C14.6933333,9.73333333 14.9333333,9.97333333 14.9333333,10.2666667 L14.9333333,22.9333333 L16.5333333,22.9333333 L16.5333333,6.4 C16.5333333,6.10666667 16.7733333,5.86666667 17.0666667,5.86666667 L21.8666667,5.86666667 C22.16,5.86666667 22.4,6.10666667 22.4,6.4 L22.4,22.9333333 L23.4666667,22.9333333 C23.76,22.9333333 24,23.1733333 24,23.4666667 Z M4.53333333,8 C11.0506667,8 16.7733333,3.62933333 18.9333333,1.74666667 L18.9333333,3.73333333 C18.9333333,4.02666667 19.1733333,4.26666667 19.4666667,4.26666667 C19.76,4.26666667 20,4.02666667 20,3.73333333 L20,0.533333333 C20,0.498666667 19.9973333,0.464 19.9893333,0.429333333 C19.9866667,0.413333333 19.9813333,0.4 19.976,0.384 C19.9706667,0.365333333 19.9653333,0.346666667 19.96,0.330666667 C19.952,0.312 19.9413333,0.296 19.9333333,0.28 C19.9253333,0.266666667 19.92,0.253333333 19.912,0.24 C19.872,0.181333333 19.8213333,0.130666667 19.7653333,0.0933333333 C19.752,0.0853333333 19.7386667,0.08 19.7253333,0.072 C19.7093333,0.0613333333 19.6906667,0.0533333333 19.672,0.0453333333 C19.6533333,0.0373333333 19.6373333,0.0346666667 19.6186667,0.0293333333 C19.6026667,0.024 19.5893333,0.0186666667 19.5733333,0.016 C19.536,0.00266666667 19.5013333,0 19.4666667,0 L16.2666667,0 C15.9733333,0 15.7333333,0.24 15.7333333,0.533333333 C15.7333333,0.826666667 15.9733333,1.06666667 16.2666667,1.06666667 L18.0773333,1.06666667 C15.9013333,2.91466667 10.4853333,6.93333333 4.53333333,6.93333333 C4.24,6.93333333 4,7.17333333 4,7.46666667 C4,7.76 4.24,8 4.53333333,8 Z" id="Shape"></path>
            </g>
        </g>
    </g>
</svg>