<?xml version="1.0" encoding="UTF-8"?>
<svg width="32px" height="32px" viewBox="0 0 32 32" version="1.1" xmlns="http://www.w3.org/2000/svg" xmlns:xlink="http://www.w3.org/1999/xlink">
    <title>1FAB1D31-72FD-4300-BA5A-CBFA16C7CFE5</title>
    <g id="UI-Kit" stroke="none" stroke-width="1" fill="none" fill-rule="evenodd">
        <g id="EVC_UIKit_Icons" transform="translate(-251.000000, -1112.000000)" fill="#007438" fill-rule="nonzero">
            <g id="instagram-(2)-copy-2" transform="translate(251.000000, 1112.000000)">
                <path d="M23.3378906,0 L8.66210938,0 C3.88574219,0 0,3.88574219 0,8.66210938 L0,23.3381348 C0,28.1142578 3.88574219,32 8.66210938,32 L23.3381348,32 C28.1142578,32 32,28.1142578 32,23.3381348 L32,8.66210938 C32,3.88574219 28.1142578,0 23.3378906,0 Z M16,24.7497559 C11.175293,24.7497559 7.25024413,20.824707 7.25024413,16 C7.25024413,11.175293 11.175293,7.25024413 16,7.25024413 C20.824707,7.25024413 24.7497559,11.175293 24.7497559,16 C24.7497559,20.824707 20.824707,24.7497559 16,24.7497559 L16,24.7497559 Z M24.9589844,9.31372069 C23.5332031,9.31372069 22.3735351,8.15405275 22.3735351,6.7282715 C22.3735351,5.30249025 23.5332031,4.14257813 24.9589844,4.14257813 C26.3847656,4.14257813 27.5446777,5.30249025 27.5446777,6.7282715 C27.5446777,8.15405275 26.3847656,9.31372069 24.9589844,9.31372069 Z" id="Shape"></path>
                <path d="M16,9.12622069 C12.2099609,9.12622069 9.12622069,12.2097168 9.12622069,16 C9.12622069,19.7900391 12.2099609,22.8737793 16,22.8737793 C19.7902832,22.8737793 22.8737793,19.7900391 22.8737793,16 C22.8737793,12.2097168 19.7902832,9.12622069 16,9.12622069 Z" id="Path"></path>
                <path d="M24.9589844,6.01879881 C24.5678711,6.01879881 24.2495117,6.33715819 24.2495117,6.7282715 C24.2495117,7.11938475 24.5678711,7.43774413 24.9589844,7.43774413 C25.3503418,7.43774413 25.6687012,7.11962888 25.6687012,6.7282715 C25.6687012,6.33691406 25.3503418,6.01879881 24.9589844,6.01879881 Z" id="Path"></path>
            </g>
        </g>
    </g>
</svg>