<?xml version="1.0" encoding="UTF-8"?>
<svg width="25px" height="24px" viewBox="0 0 25 24" version="1.1" xmlns="http://www.w3.org/2000/svg" xmlns:xlink="http://www.w3.org/1999/xlink">
    <title>72B2CF6A-884C-4FA7-95BC-743EF5FFAC1F</title>
    <g id="UI-Kit" stroke="none" stroke-width="1" fill="none" fill-rule="evenodd">
        <g id="EVC_UIKit_Icons" transform="translate(-264.000000, -807.000000)" fill="#252525" fill-rule="nonzero">
            <g id="noun_Justice_2601948-Copy" transform="translate(264.000000, 807.000000)">
                <path d="M11.3924051,6.64556962 C11.3924051,6.1212487 11.8174512,5.69620253 12.3417722,5.69620253 C12.8660931,5.69620253 13.2911392,6.1212487 13.2911392,6.64556962 L13.2911392,22.7848101 C13.2911392,23.309131 12.8660931,23.7341772 12.3417722,23.7341772 C11.8174512,23.7341772 11.3924051,23.309131 11.3924051,22.7848101 L11.3924051,6.64556962 Z" id="Path"></path>
                <path d="M10.443038,23.7341772 C9.91871706,23.7341772 9.49367089,23.309131 9.49367089,22.7848101 C9.49367089,22.2604892 9.91871706,21.835443 10.443038,21.835443 L14.2405063,21.835443 C14.7648272,21.835443 15.1898734,22.2604892 15.1898734,22.7848101 C15.1898734,23.309131 14.7648272,23.7341772 14.2405063,23.7341772 L10.443038,23.7341772 Z" id="Path"></path>
                <path d="M6.81841832,5.22928077 C6.76148962,5.2241435 6.70383608,5.22151899 6.64556962,5.22151899 L0.949367089,5.22151899 C0.891239165,5.22151899 0.833656453,5.2239405 0.776722566,5.22883827 L2.9354816,0.551527044 C3.27488286,-0.183842345 4.32005385,-0.183842345 4.65945511,0.551527044 L6.81841832,5.22928077 Z" id="Path"></path>
                <path d="M0,7.12025316 C0,6.59593225 0.425046123,6.17088608 0.949367089,6.17088608 L6.64556962,6.17088608 C7.16989054,6.17088608 7.59493671,6.59593225 7.59493671,7.12025316 L7.59493671,7.59493671 C7.59493671,9.69222057 5.89475222,11.3924051 3.79746835,11.3924051 C1.70018449,11.3924051 0,9.69222057 0,7.59493671 L0,7.12025316 Z" id="Path"></path>
                <path d="M23.9070259,11.8748503 C23.8500972,11.8697131 23.7924437,11.8670886 23.7341772,11.8670886 L18.0379747,11.8670886 C17.9798467,11.8670886 17.922264,11.8695102 17.8653302,11.8744078 L20.0240892,7.19709665 C20.3634905,6.46172725 21.4086614,6.46172725 21.7480627,7.19709665 L23.9070259,11.8748503 Z" id="Path"></path>
                <path d="M17.0886076,13.7658228 C17.0886076,13.2415019 17.5136538,12.8164557 18.0379747,12.8164557 L23.7341772,12.8164557 C24.2584981,12.8164557 24.6835443,13.2415019 24.6835443,13.7658228 L24.6835443,14.2405063 C24.6835443,16.3377902 22.9833598,18.0379747 20.8860759,18.0379747 C18.7887921,18.0379747 17.0886076,16.3377902 17.0886076,14.2405063 L17.0886076,13.7658228 Z" id="Path"></path>
                <path d="M3.4533738,1.83418165 C2.96470421,1.64414348 2.72261562,1.09394213 2.91265379,0.605272538 C3.10269197,0.116602946 3.65289331,-0.125485642 4.14156291,0.0645525285 L10.9936954,2.72927072 C11.482365,2.9193089 11.7244536,3.46951024 11.5344154,3.95817984 C11.3443772,4.44684943 10.7941759,4.68893802 10.3055063,4.49889984 L3.4533738,1.83418165 Z M14.0148457,5.94142073 C13.526176,5.7513825 13.2840874,5.20118116 13.4741256,4.71251158 C13.6641638,4.22384199 14.2143651,3.98175339 14.7030347,4.17179157 L21.2301705,6.71012212 C21.7188401,6.90016035 21.9609287,7.45036168 21.7708905,7.9390313 C21.5808523,8.42770082 21.030651,8.66978943 20.5419814,8.4797513 L14.0148457,5.94142073 Z" id="Shape"></path>
                <path d="M12.3417722,7.59493671 C10.7688093,7.59493671 9.49367089,6.31979829 9.49367089,4.74683544 C9.49367089,3.17387255 10.7688093,1.89873418 12.3417722,1.89873418 C13.914735,1.89873418 15.1898734,3.17387255 15.1898734,4.74683544 C15.1898734,6.31979829 13.914735,7.59493671 12.3417722,7.59493671 Z M12.3417722,5.69620253 C12.8660931,5.69620253 13.2911392,5.27115641 13.2911392,4.74683544 C13.2911392,4.22251448 12.8660931,3.79746835 12.3417722,3.79746835 C11.8174512,3.79746835 11.3924051,4.22251448 11.3924051,4.74683544 C11.3924051,5.27115641 11.8174512,5.69620253 12.3417722,5.69620253 Z" id="Shape"></path>
            </g>
        </g>
    </g>
</svg>