<?xml version="1.0" encoding="UTF-8"?>
<svg width="34px" height="32px" viewBox="0 0 34 32" version="1.1" xmlns="http://www.w3.org/2000/svg" xmlns:xlink="http://www.w3.org/1999/xlink">
    <title>4A892B96-EB91-477B-A49F-DDDA7EE265C8</title>
    <g id="UI-Kit" stroke="none" stroke-width="1" fill="none" fill-rule="evenodd">
        <g id="EVC_UIKit_Icons" transform="translate(-328.000000, -1112.000000)" fill="#007438" fill-rule="nonzero">
            <g id="linkedin-letters-copy-2" transform="translate(328.000000, 1112.000000)">
                <rect id="Rectangle" x="1.6" y="11.2" width="6.4" height="20.8"></rect>
                <path d="M31.2819268,12.1075793 C29.736935,10.4359629 27.6934958,9.6 25.1528583,9.6 C24.2167764,9.6 23.3658638,9.7141286 22.6005109,9.94254054 C21.8353922,10.1707977 21.189167,10.4910542 20.6615232,10.9034646 C20.1341916,11.3158751 19.7141999,11.6987281 19.4024068,12.0520238 C19.1059145,12.3876006 18.8159797,12.7785007 18.5330708,13.2207007 L18.5330708,10.1077368 L11.2,10.1077368 L11.2224828,11.168243 C11.2375494,11.875376 11.2449657,14.054884 11.2449657,17.7070764 C11.2449657,21.3595783 11.2301332,26.1237314 11.2003123,32 L18.5330708,32 L18.5330708,19.7834431 C18.5330708,19.0325156 18.6143368,18.436184 18.778118,17.9939841 C19.0903795,17.242515 19.5616601,16.6133763 20.1935213,16.1054847 C20.8253043,15.5969741 21.6088465,15.3429509 22.5452406,15.3429509 C23.8227024,15.3429509 24.7628437,15.78105 25.3647277,16.6573254 C25.9663775,17.5335235 26.2672415,18.7449115 26.2672415,20.2913347 L26.2672415,31.9993036 L33.6,31.9993036 L33.6,19.4524315 C33.5994535,16.2268092 32.827387,13.7786541 31.2819268,12.1075793 Z" id="Path"></path>
                <path d="M4.64637933,0 C3.45018123,0 2.48093968,0.378451454 1.7384275,1.13461696 C0.995991043,1.89094633 0.625,2.8458009 0.625,4.00008193 C0.625,5.13822204 0.985313407,6.08979926 1.70601595,6.85374846 C2.42649131,7.6177796 3.3779368,8 4.55982233,8 L4.60306297,8 C5.81395228,8 6.79061517,7.61810733 7.53282444,6.85374846 C8.27503371,6.08979926 8.63890633,5.13854977 8.62459375,4.00008193 C8.61020545,2.84588283 8.24239498,1.89094633 7.52191962,1.13461696 C6.80151999,0.37812372 5.84265316,0 4.64637933,0 Z" id="Path"></path>
            </g>
        </g>
    </g>
</svg>