<?xml version="1.0" encoding="UTF-8"?>
<svg width="16px" height="16px" viewBox="0 0 16 16" version="1.1" xmlns="http://www.w3.org/2000/svg" xmlns:xlink="http://www.w3.org/1999/xlink">
    <title>339CB284-D163-44F7-8F17-4F32F6ACC0D9</title>
    <g id="UI-Kit" stroke="none" stroke-width="1" fill="none" fill-rule="evenodd">
        <g id="Component-List" transform="translate(-450.000000, -1608.000000)">
            <g id="Group-16" transform="translate(0.000000, 1024.000000)">
                <g id="Group-9" transform="translate(165.000000, 253.000000)">
                    <g id="Group-2" transform="translate(285.000000, 295.000000)">
                        <g id="fmd_good-24px-(1)-copy" transform="translate(0.000000, 36.000000)">
                            <polygon id="Path" points="0 0 16 0 16 16 0 16"></polygon>
                            <path d="M8,8 C7.26666667,8 6.66666667,7.4 6.66666667,6.66666667 C6.66666667,5.93333333 7.26666667,5.33333333 8,5.33333333 C8.73333333,5.33333333 9.33333333,5.93333333 9.33333333,6.66666667 C9.33333333,7.4 8.73333333,8 8,8 Z M12,6.8 C12,4.38 10.2333333,2.66666667 8,2.66666667 C5.76666667,2.66666667 4,4.38 4,6.8 C4,8.36 5.3,10.4266667 8,12.8933333 C10.7,10.4266667 12,8.36 12,6.8 Z M8,1.33333333 C10.8,1.33333333 13.3333333,3.48 13.3333333,6.8 C13.3333333,9.01333333 11.5533333,11.6333333 8,14.6666667 C4.44666667,11.6333333 2.66666667,9.01333333 2.66666667,6.8 C2.66666667,3.48 5.2,1.33333333 8,1.33333333 Z" id="Shape" fill="#171738" fill-rule="nonzero"></path>
                        </g>
                    </g>
                </g>
            </g>
        </g>
    </g>
</svg>