<?xml version="1.0" encoding="UTF-8"?>
<svg width="56px" height="46px" viewBox="0 0 56 46" version="1.1" xmlns="http://www.w3.org/2000/svg" xmlns:xlink="http://www.w3.org/1999/xlink">
    <title>DC20271D-2BD5-424F-B037-B3049CB4B63B</title>
    <g id="UI-Kit" stroke="none" stroke-width="1" fill="none" fill-rule="evenodd">
        <g id="EVC_UIKit_Icons" transform="translate(-535.000000, -372.000000)" fill="#252525" fill-rule="nonzero">
            <g id="noun_online_3745815" transform="translate(535.000000, 372.000000)">
                <path d="M55.5038501,40.7784184 C55.5024794,40.7713287 55.5032833,40.7639075 55.5016756,40.7569123 C55.4866451,40.6901247 55.4634847,40.6248032 55.4304925,40.5627899 L50.7397866,31.741531 L50.7397866,1.39567949 C50.7397866,0.968014242 50.393041,0.621268721 49.9653758,0.621268721 L5.79219919,0.621268721 C5.36453394,0.621268721 5.01778842,0.968014242 5.01778842,1.39567949 L5.01778842,31.741531 L0.327082458,40.5627899 C0.294090236,40.6248032 0.270929933,40.6901255 0.255899394,40.7569123 C0.254292492,40.7639075 0.255095556,40.7713287 0.253724848,40.7784184 C0.237181886,40.8630724 0.238079428,40.9487663 0.250085118,41.0338454 C0.251739259,41.0457566 0.247343704,41.0568168 0.249565488,41.068728 L1.02397626,45.2111449 C1.09241791,45.5779314 1.41231616,45.8433785 1.78515236,45.8433785 L53.9724219,45.8433785 C54.345258,45.8433785 54.6651563,45.5779314 54.7335979,45.2111449 L55.5080087,41.068728 C55.5102305,41.0568168 55.5058342,41.0457566 55.5074891,41.0338454 C55.5194956,40.9487656 55.5203939,40.8630724 55.5038501,40.7784184 Z M6.56660997,2.17008949 L49.1909658,2.17008949 L49.1909658,31.1602025 L6.56660997,31.1602025 L6.56660997,2.17008949 Z M6.25748842,32.7090241 L49.5000866,32.7090241 L53.4577872,40.15214 L2.29978859,40.15214 L6.25748842,32.7090241 Z M53.3292234,44.294557 L2.42835239,44.294557 L1.94330562,41.7009616 L53.8142694,41.7009616 L53.3292234,44.294557 Z" id="Shape"></path>
                <path d="M31.5114853,37.32486 L24.2460904,37.32486 C23.8184252,37.32486 23.4716797,37.6716055 23.4716797,38.0992708 C23.4716797,38.526936 23.8184252,38.8736815 24.2460904,38.8736815 L31.5114853,38.8736815 C31.9391506,38.8736815 32.2858961,38.526936 32.2858961,38.0992708 C32.2858961,37.6716055 31.9391506,37.32486 31.5114853,37.32486 Z" id="Path"></path>
                <path d="M39.0472905,12.500088 C37.356528,7.96573946 32.9951263,4.72171259 27.8787879,4.72171259 C22.7624495,4.72171259 18.4010478,7.96573946 16.7102853,12.500088 C16.6845725,12.5488666 16.6686909,12.6000559 16.6537548,12.6542709 C16.2068052,13.9056459 15.9506688,15.2468262 15.9506688,16.6498316 C15.9506688,18.0528371 16.2068052,19.3940174 16.6537548,20.6453924 C16.6686909,20.6996066 16.6845725,20.7507959 16.7102853,20.7995753 C18.4010478,25.3339238 22.7624495,28.5779507 27.8787879,28.5779507 C32.9951263,28.5779507 37.356528,25.3339238 39.0472905,20.7995753 C39.0730033,20.7507967 39.0888849,20.6996074 39.1038209,20.6453924 C39.5507706,19.3940174 39.8069069,18.0528371 39.8069069,16.6498316 C39.8069069,15.2468262 39.5507706,13.9056459 39.1038209,12.6542709 C39.0888849,12.6000567 39.0730033,12.5488674 39.0472905,12.500088 Z M24.1231984,6.98458579 C23.1815598,8.2647929 22.4404712,10.0166704 21.9965936,12.080884 L18.573475,12.080884 C19.7174609,9.76095993 21.697256,7.93076242 24.1231984,6.98458579 Z M17.4994904,16.6498316 C17.4994904,15.599386 17.6591561,14.586044 17.9506946,13.6297055 L21.7327534,13.6297055 C21.6032433,14.592992 21.527334,15.6005678 21.527334,16.6498316 C21.527334,17.6990955 21.6032433,18.7066713 21.7327534,19.6699578 L17.9506946,19.6699578 C17.6591561,18.7136193 17.4994904,17.7002773 17.4994904,16.6498316 Z M18.573475,21.2187793 L21.9965936,21.2187793 C22.4404712,23.2829922 23.1815591,25.0348696 24.1231984,26.3150775 C21.697256,25.3689009 19.7174609,23.5387034 18.573475,21.2187793 Z M27.1043771,26.8698894 C25.6716885,26.3152665 24.2929314,24.2654701 23.5799198,21.2187801 L27.1043771,21.2187801 L27.1043771,26.8698894 Z M27.1043771,19.6699578 L23.2893261,19.6699578 C23.1546645,18.7297844 23.0761556,17.722729 23.0761556,16.6498316 C23.0761556,15.5769343 23.1546645,14.5698789 23.2893268,13.6297055 L27.1043771,13.6297055 L27.1043771,19.6699578 Z M27.1043771,12.080884 L23.5799198,12.080884 C24.2929314,9.03419401 25.6716885,6.98439684 27.1043771,6.42977391 L27.1043771,12.080884 Z M37.1841008,12.080884 L33.7609821,12.080884 C33.3171046,10.0166711 32.5760167,8.26479367 31.6343773,6.98458579 C34.0603198,7.93076242 36.0401148,9.76095993 37.1841008,12.080884 Z M28.6531987,6.42977391 C30.0858872,6.98439684 31.4646443,9.03419323 32.1776559,12.0808832 L28.6531987,12.0808832 L28.6531987,6.42977391 Z M28.6531987,13.6297055 L32.4682497,13.6297055 C32.6029112,14.5698789 32.681421,15.5769343 32.681421,16.6498316 C32.681421,17.722729 32.602912,18.7297844 32.4682497,19.6699578 L28.6531987,19.6699578 L28.6531987,13.6297055 Z M28.6531987,26.8698894 L28.6531987,21.2187801 L32.1776559,21.2187801 C31.4646443,24.2654693 30.0858872,26.3152665 28.6531987,26.8698894 Z M31.6343773,26.3150775 C32.5760159,25.0348704 33.3171046,23.2829929 33.7609821,21.2187793 L37.1841008,21.2187793 C36.0401148,23.5387034 34.0603198,25.3689009 31.6343773,26.3150775 Z M37.8068811,19.6699578 L34.0248223,19.6699578 C34.1543325,18.7066713 34.2302418,17.6990955 34.2302418,16.6498316 C34.2302418,15.6005678 34.1543325,14.592992 34.0248223,13.6297055 L37.8068811,13.6297055 C38.0984197,14.586044 38.2580854,15.599386 38.2580854,16.6498316 C38.2580854,17.7002773 38.0984197,18.7136193 37.8068811,19.6699578 Z" id="Shape"></path>
            </g>
        </g>
    </g>
</svg>