<?xml version="1.0" encoding="UTF-8"?>
<svg width="24px" height="24px" viewBox="0 0 24 24" version="1.1" xmlns="http://www.w3.org/2000/svg" xmlns:xlink="http://www.w3.org/1999/xlink">
    <title>EBD89A9C-E493-4F47-A1CC-10810BED5029</title>
    <g id="UI-Kit" stroke="none" stroke-width="1" fill="none" fill-rule="evenodd">
        <g id="EVC_UIKit_Icons" transform="translate(-773.000000, -807.000000)" fill="#252525">
            <g id="noun_other_3513329" transform="translate(773.000000, 807.000000)">
                <path d="M12.5033631,0.639843463 C18.7961355,0.639843463 23.8679222,5.71163018 23.8679222,12.0044026 C23.8679222,18.297175 18.7961355,23.3689617 12.5033631,23.3689617 C6.21059068,23.3689617 1.13880396,18.297175 1.13880396,12.0044026 C1.13880396,5.71163018 6.21059068,0.639843463 12.5033631,0.639843463 Z M7.43157637,6.27516204 L10.6249236,6.27516204 C11.0006115,6.27516204 11.2823774,6.65084994 11.2823774,6.93261587 L11.2823774,10.1259631 C11.2823774,10.501651 11.0006115,10.7834169 10.6249236,10.7834169 L7.43157637,10.7834169 C7.14981044,10.7834169 6.77412254,10.501651 6.77412254,10.1259631 L6.77412254,6.93261587 C6.77412254,6.65084994 7.14981044,6.27516204 7.43157637,6.27516204 Z M14.0061147,5.71163018 L17.9508377,5.71163018 C18.4204476,5.71163018 18.7961355,6.08731809 18.7961355,6.55692797 L18.7961355,10.501651 C18.7961355,10.9712609 18.4204476,11.3469488 17.9508377,11.3469488 L14.0061147,11.3469488 C13.5365048,11.3469488 13.1608169,10.9712609 13.1608169,10.501651 L13.1608169,6.55692797 C13.1608169,6.08731809 13.5365048,5.71163018 14.0061147,5.71163018 Z M7.05588847,12.6618564 L11.0006115,12.6618564 C11.4702214,12.6618564 11.8459093,13.0375443 11.8459093,13.5071542 L11.8459093,17.4518772 C11.8459093,17.9214871 11.4702214,18.297175 11.0006115,18.297175 L7.05588847,18.297175 C6.58627859,18.297175 6.21059068,17.9214871 6.21059068,17.4518772 L6.21059068,13.5071542 C6.21059068,13.0375443 6.58627859,12.6618564 7.05588847,12.6618564 Z M14.3818026,13.2253883 L17.5751498,13.2253883 C17.8569157,13.2253883 18.2326036,13.5071542 18.2326036,13.8828421 L18.2326036,17.0761893 C18.2326036,17.3579552 17.8569157,17.7336431 17.5751498,17.7336431 L14.3818026,17.7336431 C14.0061147,17.7336431 13.7243488,17.3579552 13.7243488,17.0761893 L13.7243488,13.8828421 C13.7243488,13.5071542 14.0061147,13.2253883 14.3818026,13.2253883 Z" id="Shape"></path>
            </g>
        </g>
    </g>
</svg>