<?xml version="1.0" encoding="UTF-8"?>
<svg width="56px" height="56px" viewBox="0 0 56 56" version="1.1" xmlns="http://www.w3.org/2000/svg" xmlns:xlink="http://www.w3.org/1999/xlink">
    <title>EE886DB4-BD5B-4D74-B4BA-84DEF31C78D4</title>
    <g id="UI-Kit" stroke="none" stroke-width="1" fill="none" fill-rule="evenodd">
        <g id="EVC_UIKit_Icons" transform="translate(-319.000000, -484.000000)" fill="#252525" fill-rule="nonzero" stroke="#FFFFFF" stroke-width="0.6">
            <g id="noun_pathway_2358277" transform="translate(319.000000, 484.000000)">
                <path d="M21.5675676,20.0540541 L21.5675676,1.89189189 C21.5675676,1.05945946 20.8864865,0.378378378 20.0540541,0.378378378 L1.89189189,0.378378378 C1.05945946,0.378378378 0.378378378,1.05945946 0.378378378,1.89189189 L0.378378378,20.0540541 C0.378378378,20.8864865 1.05945946,21.5675676 1.89189189,21.5675676 L20.0540541,21.5675676 C20.8864865,21.5675676 21.5675676,20.8864865 21.5675676,20.0540541 Z M18.5405405,18.5405405 L3.40540541,18.5405405 L3.40540541,3.40540541 L18.5405405,3.40540541 L18.5405405,18.5405405 Z" id="Shape"></path>
                <path d="M54.1081081,34.4324324 L35.9459459,34.4324324 C35.1135135,34.4324324 34.4324324,35.1135135 34.4324324,35.9459459 L34.4324324,54.1081081 C34.4324324,54.9405405 35.1135135,55.6216216 35.9459459,55.6216216 L54.1081081,55.6216216 C54.9405405,55.6216216 55.6216216,54.9405405 55.6216216,54.1081081 L55.6216216,35.9459459 C55.6216216,35.1135135 54.9405405,34.4324324 54.1081081,34.4324324 Z M52.5945946,52.5945946 L37.4594595,52.5945946 L37.4594595,37.4594595 L52.5945946,37.4594595 L52.5945946,52.5945946 Z" id="Shape"></path>
                <path d="M27.6216216,44.2702703 L12.4864865,44.2702703 L12.4864865,29.1351351 L44.2702703,29.1351351 C45.1027027,29.1351351 45.7837838,28.4540541 45.7837838,27.6216216 L45.7837838,10.972973 C45.7837838,10.1405405 45.1027027,9.45945946 44.2702703,9.45945946 L27.6216216,9.45945946 C26.7891892,9.45945946 26.1081081,10.1405405 26.1081081,10.972973 C26.1081081,11.8054054 26.7891892,12.4864865 27.6216216,12.4864865 L42.7567568,12.4864865 L42.7567568,26.1081081 L10.972973,26.1081081 C10.1405405,26.1081081 9.45945946,26.7891892 9.45945946,27.6216216 L9.45945946,45.7837838 C9.45945946,46.6162162 10.1405405,47.2972973 10.972973,47.2972973 L27.6216216,47.2972973 C28.4540541,47.2972973 29.1351351,46.6162162 29.1351351,45.7837838 C29.1351351,44.9513514 28.4540541,44.2702703 27.6216216,44.2702703 Z" id="Path"></path>
            </g>
        </g>
    </g>
</svg>