<?xml version="1.0" encoding="UTF-8"?>
<svg xmlns="http://www.w3.org/2000/svg" xmlns:xlink="http://www.w3.org/1999/xlink" version="1.1" x="0px" y="0px" viewBox="0 0 512 640" style="enable-background:new 0 0 512 512;" xml:space="preserve"><g><g><g><path d="M410,490H110c-5.523,0-10-4.478-10-10V40c0-5.523,4.477-10,10-10h225c2.652,0,5.195,1.054,7.071,2.929l75,75     c1.875,1.875,2.929,4.419,2.929,7.071v365C420,485.522,415.522,490,410,490z M120,470h280V119.142L330.857,50H120V470z"/></g><g><path d="M410.02,125c-0.007,0-0.015,0-0.02,0h-75c-5.522,0-10-4.477-10-10V40c0-4.044,2.437-7.691,6.173-9.239     c3.737-1.547,8.038-0.693,10.898,2.167l74.633,74.633c2.036,1.831,3.315,4.485,3.315,7.438     C420.02,120.523,415.543,125,410.02,125z M345,105h40.857L345,64.142V105z"/></g><g><path d="M260,180H160c-5.523,0-10-4.477-10-10s4.477-10,10-10h100c5.522,0,10,4.477,10,10S265.522,180,260,180z"/></g><g><path d="M360,220H160c-5.523,0-10-4.477-10-10s4.477-10,10-10h200c5.522,0,10,4.477,10,10S365.522,220,360,220z"/></g><g><path d="M360,260H160c-5.523,0-10-4.477-10-10s4.477-10,10-10h200c5.522,0,10,4.477,10,10S365.522,260,360,260z"/></g><g><path d="M360,300H160c-5.523,0-10-4.478-10-10s4.477-10,10-10h200c5.522,0,10,4.478,10,10S365.522,300,360,300z"/></g></g></g></svg>