<?xml version="1.0" encoding="UTF-8"?>
<svg width="44px" height="56px" viewBox="0 0 44 56" version="1.1" xmlns="http://www.w3.org/2000/svg" xmlns:xlink="http://www.w3.org/1999/xlink">
    <title>F556882C-3659-486D-A813-41DAAB712A36</title>
    <g id="UI-Kit" stroke="none" stroke-width="1" fill="none" fill-rule="evenodd">
        <g id="EVC_UIKit_Icons" transform="translate(-1189.000000, -483.000000)" fill="#171738" fill-rule="nonzero">
            <g id="noun_PDF_519005" transform="translate(1189.000000, 483.000000)">
                <path d="M11.6195322,19.6384894 L12.7524752,19.6384894 C13.538669,19.6384894 14.1394722,19.5969103 14.553168,19.5101365 C14.8587193,19.4396328 15.1591209,19.2968176 15.4543727,19.0816909 C15.7496245,18.8647564 15.9916623,18.5682792 16.1839193,18.1886438 C16.3761763,17.8090084 16.4705882,17.3407914 16.4705882,16.7876084 C16.4705882,16.0663012 16.3040799,15.4769624 15.9710634,15.0214 C15.6380468,14.5658375 15.2260675,14.2711681 14.7334089,14.1355841 C14.4124084,14.0451947 13.7240597,14 12.6683628,14 L9.88235294,14 L9.88235294,23.0588235 L11.6195322,23.0588235 L11.6195322,19.6384894 Z M11.6195322,15.5293883 L12.45894,15.5293883 C13.0854918,15.5293883 13.5009043,15.5510817 13.7086105,15.5908531 C13.9901297,15.6432789 14.2235846,15.778863 14.4072587,15.9939897 C14.5909328,16.2073086 14.6836281,16.4802846 14.6836281,16.8093019 C14.6836281,17.0750467 14.6183981,17.310059 14.4862214,17.5125313 C14.3557613,17.7150035 14.1738038,17.863242 13.943782,17.957247 C13.7137602,18.0530597 13.2554333,18.1000622 12.5705177,18.1000622 L11.6195322,18.1000622 L11.6195322,15.5293883 L11.6195322,15.5293883 Z" id="Shape"></path>
                <path d="M23.0582356,22.8690058 C23.5838676,22.6954582 24.0036677,22.4550225 24.3123443,22.1458908 C24.7215612,21.7373308 25.0372932,21.2040335 25.2577764,20.5459988 C25.4394546,20.0054703 25.5294118,19.3637057 25.5294118,18.6188972 C25.5294118,17.7692371 25.4323991,17.0569688 25.2401377,16.476669 C25.0478764,15.8963692 24.7638939,15.4082665 24.395246,15.0087455 C24.0248341,14.6074166 23.5803399,14.3308251 23.0617633,14.1735476 C22.6754767,14.059657 22.1145673,14 21.3790352,14 L18.1176471,14 L18.1176471,23.0588235 L21.4760478,23.0588235 C22.1374976,23.0588235 22.6648935,22.995551 23.0582356,22.8690058 Z M19.9062071,21.5348586 L19.9062071,15.5330039 L20.7087661,15.5330039 C21.4372428,15.5330039 21.9240698,15.5619285 22.1745387,15.6197777 C22.5079094,15.693897 22.7830725,15.8349044 23.000028,16.0464155 C23.2187474,16.2543111 23.3863146,16.5471727 23.5080214,16.9213847 C23.6279643,17.2974045 23.6896996,17.8343174 23.6896996,18.535739 C23.6896996,19.2371606 23.6297281,19.7885358 23.5080214,20.195288 C23.3863146,20.6020402 23.2310944,20.893094 23.038833,21.0684494 C22.8483355,21.2456126 22.6084498,21.3703499 22.3191757,21.4444692 C22.0986925,21.5023184 21.7388638,21.5330508 21.2396898,21.5330508 L19.9062071,21.5330508 L19.9062071,21.5348586 Z" id="Shape"></path>
                <polygon id="Path" points="28.8743409 19.2092756 32.3841676 19.2092756 32.3841676 17.6777739 28.8743409 17.6777739 28.8743409 15.5315017 32.9411765 15.5315017 32.9411765 14 27.1764706 14 27.1764706 23.0588235 28.8743409 23.0588235"></polygon>
                <path d="M3.49176471,56 L40.1552941,56 C42.0757647,56 43.6470588,54.425 43.6470588,52.5 L43.6470588,3.5 C43.6470588,1.575 42.0757647,0 40.1552941,0 L3.49176471,0 C1.57129412,0 0,1.575 0,3.5 L0,52.5 C0,54.425 1.57129412,56 3.49176471,56 Z M1.74588235,3.5 C1.74588235,2.53575 2.52978353,1.75 3.49176471,1.75 L40.1552941,1.75 C41.1172753,1.75 41.9011765,2.53575 41.9011765,3.5 L41.9011765,52.5 C41.9011765,53.46425 41.1172753,54.25 40.1552941,54.25 L3.49176471,54.25 C2.52978353,54.25 1.74588235,53.46425 1.74588235,52.5 L1.74588235,3.5 Z" id="Shape"></path>
                <rect id="Rectangle" x="8.23529412" y="42.8235294" width="26.3529412" height="1.64705882"></rect>
                <rect id="Rectangle" x="8.23529412" y="36.2352941" width="26.3529412" height="1.64705882"></rect>
            </g>
        </g>
    </g>
</svg>