<?xml version="1.0" encoding="UTF-8"?>
<svg width="32px" height="32px" viewBox="0 0 32 32" version="1.1" xmlns="http://www.w3.org/2000/svg" xmlns:xlink="http://www.w3.org/1999/xlink">
    <title>217DD45D-DFAB-48C8-9B4E-7B5D495D8020</title>
    <g id="UI-Kit" stroke="none" stroke-width="1" fill="none" fill-rule="evenodd">
        <g id="EVC_UIKit_Icons" transform="translate(-187.000000, -1019.000000)">
            <g id="local_phone-24px-(1)" transform="translate(187.000000, 1019.000000)">
                <polygon id="Path" points="0 0 32 0 32 32 0 32"></polygon>
                <path d="M8.82666667,14.3866667 C10.7466667,18.16 13.84,21.24 17.6133333,23.1733333 L20.5466667,20.24 C20.9066667,19.88 21.44,19.76 21.9066667,19.92 C23.4,20.4133333 25.0133333,20.68 26.6666667,20.68 C27.4,20.68 28,21.28 28,22.0133333 L28,26.6666667 C28,27.4 27.4,28 26.6666667,28 C14.1466667,28 4,17.8533333 4,5.33333333 C4,4.6 4.6,4 5.33333333,4 L10,4 C10.7333333,4 11.3333333,4.6 11.3333333,5.33333333 C11.3333333,7 11.6,8.6 12.0933333,10.0933333 C12.24,10.56 12.1333333,11.08 11.76,11.4533333 L8.82666667,14.3866667 Z" id="Path" fill="#000000" fill-rule="nonzero"></path>
            </g>
        </g>
    </g>
</svg>