<?xml version="1.0" encoding="UTF-8"?>
<svg width="66px" height="57px" viewBox="0 0 66 57" version="1.1" xmlns="http://www.w3.org/2000/svg" xmlns:xlink="http://www.w3.org/1999/xlink">
    <title>61649952-ABA1-4B56-9666-37780C65B9AC</title>
    <g id="UI-Kit" stroke="none" stroke-width="1" fill="none" fill-rule="evenodd">
        <g id="EVC_UIKit_Icons" transform="translate(-104.000000, -366.000000)" fill="#252525" fill-rule="nonzero" stroke="#FFFFFF" stroke-width="0.2">
            <g id="noun_schedule_3266877" transform="translate(104.000000, 366.000000)">
                <path d="M11.6668149,0.114567033 C11.032458,0.127209544 10.5264953,0.648289714 10.5327486,1.2827374 L10.5327486,4.11790312 L1.36987108,4.11790312 C0.734619329,4.1204452 0.220276973,4.6347899 0.217737789,5.27004165 L0.217737789,16.7643011 L0.217737789,46.1189667 C0.220279367,46.7542168 0.734621027,47.2685588 1.36987108,47.2711009 L35.0710288,47.2711009 C37.5667453,52.6649803 43.0158299,56.4249563 49.3394551,56.4249563 C58.0120134,56.4249563 65.0650117,49.3697023 65.0650117,40.697144 C65.0650117,33.4962904 60.1970504,27.4190361 53.5820353,25.5589586 L53.5820353,16.7643011 L53.5820353,5.27004165 C53.5816232,5.23153728 53.5792888,5.19307749 53.5750407,5.15480594 C53.5135069,4.5640624 53.0145872,4.11591232 52.4206508,4.11788563 L43.2667954,4.11788563 L43.2667954,1.28271992 C43.2698612,0.970457808 43.1465474,0.670221057 42.9248856,0.450259466 C42.7032239,0.230297874 42.4020466,0.109299346 42.0898174,0.114567033 C41.4545712,0.125965497 40.9472479,0.64740573 40.9534866,1.28271992 L40.9534866,4.11788563 L12.8460601,4.11788563 L12.8460601,1.28271992 C12.8491364,0.970060177 12.7255115,0.669471757 12.503354,0.449445331 C12.2811965,0.229418905 11.9794305,0.108697 11.6668149,0.114567033 Z M2.53104967,6.43347206 L10.5327486,6.43347206 L10.5327486,9.26637329 C10.546709,9.89517263 11.06045,10.3976344 11.6894043,10.3976344 C12.3183586,10.3976344 12.8320997,9.89517263 12.8460601,9.26637329 L12.8460601,6.43347206 L40.9537008,6.43347206 L40.9537008,9.26637329 C40.9676927,9.89514898 41.4814239,10.3975754 42.1103552,10.3975754 C42.7392866,10.3975754 43.2530177,9.89514898 43.2670096,9.26637329 L43.2670096,6.43347206 L51.2687221,6.43347206 L51.2687221,15.6031352 L2.53104967,15.6031352 L2.53104967,6.43347206 Z M2.53104967,17.9164484 L51.2687221,17.9164484 L51.2687221,25.0913228 C50.6404383,25.0138141 50.0062572,24.9610488 49.3575317,24.9603056 C49.3537284,24.9603056 49.3501,24.9603056 49.3461655,24.9603056 C49.3431054,24.9602934 49.3400453,24.9602934 49.3369851,24.9603056 C48.253717,24.9604673 47.194178,25.0711697 46.1719944,25.2810945 C45.6605419,25.3861444 45.1573605,25.5160687 44.6651825,25.6696435 C38.2679389,27.6666443 33.6114391,33.6514214 33.6114391,40.6971352 C33.6114391,42.1753261 33.829364,43.6005025 34.2123562,44.9577789 L2.53104967,44.9577789 L2.53104967,17.9164484 Z M49.3394551,27.27361 C50.2944033,27.2762811 51.2396422,27.3850862 52.1723607,27.5898962 C52.2104013,27.5986854 52.2488624,27.605543 52.2875964,27.6104428 C52.2897472,27.6109149 52.2924052,27.6099576 52.2941538,27.6104428 C58.2867999,28.95547 62.7515017,34.2923042 62.7515017,40.6973669 C62.7515017,48.1197052 56.7616098,54.1095972 49.3392584,54.1095972 C43.7477515,54.1095972 38.970266,50.7100388 36.9526535,45.8593935 C36.9521097,45.8580951 36.9531969,45.8561759 36.9526535,45.8550218 C36.9390699,45.796476 36.9209442,45.7390778 36.8984411,45.6833486 C36.4214593,44.4972995 36.115755,43.2504718 35.9904777,41.9825686 C35.9595704,41.655878 35.9479856,41.3240026 35.9407769,40.9908289 C35.9386483,40.8921616 35.9249516,40.7963359 35.9249516,40.697144 C35.9249516,40.6956139 35.9249516,40.694145 35.9249516,40.6927724 C35.9249516,40.6912685 35.9249516,40.6897647 35.9249516,40.6884007 C35.9252524,40.2277858 35.9496512,39.7724473 35.9949849,39.3239067 C36.0192036,39.0846921 36.064629,38.8520961 36.1011538,38.6168071 C36.1339847,38.4054397 36.1557728,38.1899629 36.1982998,37.9820009 C36.2873277,37.5466757 36.3959361,37.1198533 36.5258648,36.7010965 C36.5263623,36.6994877 36.527623,36.6981806 36.5281201,36.6967249 C36.6581843,36.2780555 36.8089437,35.8676354 36.9776775,35.4677771 C36.9783372,35.4662164 36.9792854,35.4648175 36.9799446,35.4634055 C37.1854148,34.976998 37.4256738,34.5109592 37.6847762,34.0559879 C37.8534724,33.7597675 38.0256178,33.4654792 38.2156697,33.1839824 C38.4555357,32.828614 38.7118403,32.4860456 38.9837586,32.1560851 C38.9847881,32.1548391 38.9849844,32.1528238 38.9860139,32.1517134 C39.2312613,31.8543563 39.4935559,31.5727458 39.7631489,31.2977757 C39.7928759,31.2671744 39.8188433,31.2330321 39.8490074,31.2029117 C40.1520913,30.8995655 40.469125,30.6109254 40.800078,30.3376778 C40.8008911,30.3370045 40.801525,30.3360909 40.8023468,30.335422 C41.1325347,30.0628957 41.4767686,29.8053946 41.8324868,29.5650652 C41.8333436,29.5644881 41.8338857,29.5633865 41.8347425,29.5628094 C42.1905481,29.3225456 42.5603472,29.0999868 42.9394403,28.89411 C42.940319,28.8936379 42.9408174,28.8923308 42.9417092,28.8918587 C43.3209029,28.6860431 43.7116507,28.4985447 44.1119112,28.3293414 C44.1127986,28.3289698 44.1132839,28.3274529 44.1141757,28.3270856 C44.5154023,28.1575982 44.9251886,28.0080016 45.3453792,27.8775265 C46.6063884,27.48583 47.9477609,27.2743445 49.3394507,27.2743445 L49.3394551,27.27361 Z M48.7995391,34.0033711 C48.1616361,34.0109605 47.65023,34.5334866 47.6563851,35.1714036 L47.6563851,43.8982792 C47.6589972,44.5370534 48.1788323,45.0528451 48.817607,45.050422 L53.7017694,45.050422 C54.3306237,45.0365281 54.8331685,44.5227644 54.8331685,43.8937568 C54.8331685,43.2647492 54.3306237,42.7509855 53.7017694,42.7371002 L49.9697499,42.7371002 L49.9697499,35.1714036 C49.9727782,34.860332 49.8503877,34.5611513 49.6302042,34.3413925 C49.4100207,34.1216337 49.1106042,33.999821 48.7995391,34.0033711 L48.7995391,34.0033711 Z" id="Shape"></path>
            </g>
        </g>
    </g>
</svg>