<?xml version="1.0" encoding="UTF-8"?>
<svg width="68px" height="57px" viewBox="0 0 68 57" version="1.1" xmlns="http://www.w3.org/2000/svg" xmlns:xlink="http://www.w3.org/1999/xlink">
    <title>664B363E-0F68-4444-9D1D-2979B1A33B8A</title>
    <g id="UI-Kit" stroke="none" stroke-width="1" fill="none" fill-rule="evenodd">
        <g id="EVC_UIKit_Icons" transform="translate(-1178.000000, -367.000000)" fill="#252525" fill-rule="nonzero" stroke="#252525" stroke-width="0.5">
            <g id="noun_scholarship_3006354-copy" transform="translate(1178.000000, 367.000000)">
                <path d="M37.9636364,25.5563636 C44.8240171,25.5563636 50.3854545,19.9949262 50.3854545,13.1345455 C50.3854545,6.27416471 44.8240171,0.712727273 37.9636364,0.712727273 C31.1032556,0.712727273 25.5418182,6.27416471 25.5418182,13.1345455 C25.5458303,19.9932636 31.1049182,25.5523515 37.9636364,25.5563636 L37.9636364,25.5563636 Z M37.9636364,2.18181818 C42.4008069,2.18181818 46.4007897,4.85548885 48.0974593,8.95546382 C49.7941289,13.0554388 48.8531466,17.7737974 45.7135119,20.9092681 C42.5738772,24.0447388 37.8542739,24.9794584 33.7565543,23.277349 C29.6588347,21.5752397 26.9904788,17.5717121 26.9963539,13.1345455 C27.0083896,7.08483151 31.9139118,2.18581532 37.9636364,2.18181818 Z" id="Shape"></path>
                <path d="M37.2363636,17.8109091 L37.2363636,19.0836364 C37.2363636,19.485298 37.5619747,19.8109091 37.9636364,19.8109091 C38.365298,19.8109091 38.6909091,19.485298 38.6909091,19.0836364 L38.6909091,17.7454545 C39.1572562,17.6579869 39.6019778,17.4800982 40,17.2218182 C40.7262912,16.7636709 41.1658791,15.9641703 41.1636449,15.1054545 C41.1636449,12.8727273 39.3018182,12.3054545 38.0727273,11.9272727 C36.8436364,11.5490909 36.4436364,11.3454545 36.4363636,10.8072727 C36.3762856,10.2680157 36.6307687,9.74208394 37.0909091,9.45454545 C37.6900695,9.14154252 38.404476,9.14154252 39.0036364,9.45454545 C39.12,9.51272727 39.3018182,9.64363636 39.3018182,9.80363636 C39.3018182,10.205298 39.6274293,10.5309091 40.0290909,10.5309091 C40.4307525,10.5309091 40.7563636,10.205298 40.7563636,9.80363636 C40.7384433,9.11549869 40.3408444,8.49390043 39.7236364,8.18909091 C39.4009689,8.00784563 39.0489406,7.88475881 38.6836364,7.82545455 L38.6836364,6.54545455 C38.6836364,6.14379291 38.3580253,5.81818182 37.9563636,5.81818182 C37.554702,5.81818182 37.2290909,6.14379291 37.2290909,6.54545455 L37.2290909,7.88363636 C36.9254161,7.95096927 36.6336446,8.06375492 36.3636364,8.21818182 C35.4600323,8.76784547 34.936147,9.77359306 35.0036364,10.8290909 C35.0036364,12.5163636 36.56,13.0109091 37.6727273,13.3163636 C39.1272727,13.7527273 39.7309091,14.0436364 39.7309091,15.1054545 C39.7279804,15.4755713 39.5285636,15.8162416 39.2072727,16 C38.7828524,16.2584853 38.2931671,16.3897412 37.7963636,16.3781818 C37.1563636,16.3781818 36.1963636,16.1309091 36.1963636,15.4472727 C36.1963636,15.0456111 35.8707525,14.72 35.4690909,14.72 C35.0674293,14.72 34.7418182,15.0456111 34.7418182,15.4472727 C34.7418182,16.7272727 35.7454545,17.6218182 37.2363636,17.8109091 Z" id="Path"></path>
                <path d="M67.5127273,34.1818182 C66.802266,32.1326523 64.6557649,30.9541195 62.5454545,31.4545455 L62.4654545,31.4545455 L41.2290909,39.2290909 C41.1644928,38.7419532 40.9931423,38.275085 40.7272727,37.8618182 C40.2338713,37.0947023 39.4433313,36.5676756 38.5454545,36.4072727 L23.7818182,31.7236364 C21.3236364,31.0545455 18.1163636,31.2363636 15.7818182,31.3745455 L13.6,31.5054545 C13.5517448,31.4987813 13.5028007,31.4987813 13.4545455,31.5054545 L13.4545455,29.6072727 C13.4545455,29.2056111 13.1289344,28.88 12.7272727,28.88 L1.36727273,28.88 C0.965611091,28.88 0.64,29.2056111 0.64,29.6072727 L0.64,55.1490909 C0.64,55.5507525 0.965611091,55.8763636 1.36727273,55.8763636 L12.7345455,55.8763636 C13.1362071,55.8763636 13.4618182,55.5507525 13.4618182,55.1490909 L13.4618182,51.9345455 C13.4785504,51.9305304 13.4959951,51.9305304 13.5127273,51.9345455 L33.7309091,55.7018182 C38.2969911,56.5491856 43.0111957,55.4986665 46.7854545,52.7927273 L65.9345455,38.9745455 C67.4594301,37.8994127 68.1004845,35.952616 67.5127273,34.1818182 L67.5127273,34.1818182 Z M12.0072727,54.4218182 L2.09454545,54.4218182 L2.09454545,30.3345455 L12.0072727,30.3345455 L12.0072727,54.4218182 Z M65.0909091,37.8181818 L45.9345455,51.6363636 C42.485432,54.1132845 38.1756458,55.0771428 34,54.3054545 L13.8181818,50.5236364 C13.7130507,50.4980401 13.6033129,50.4980401 13.4981818,50.5236364 L13.4981818,32.9236364 C13.5753272,32.9351928 13.6537637,32.9351928 13.7309091,32.9236364 L15.9127273,32.8 C18.1527273,32.6690909 21.2218182,32.4872727 23.4181818,33.0909091 L38.2109091,37.8181818 C38.2396317,37.8247283 38.2694592,37.8247283 38.2981818,37.8181818 C38.8067883,37.9045443 39.2551054,38.2020798 39.5322516,38.6371994 C39.8093978,39.0723189 39.8894929,39.6043906 39.7527273,40.1018182 C39.4515755,41.1835354 38.3785922,41.8600498 37.2727273,41.6654545 L27.7090909,40 C26.4272338,39.775619 25.1145307,39.7953589 23.84,40.0581818 L20.9309091,40.6618182 C20.6710796,40.7137841 20.4587106,40.9004199 20.3737996,41.1514219 C20.2888887,41.4024238 20.3443356,41.6796586 20.5192542,41.8786946 C20.6941728,42.0777307 20.9619887,42.1683296 21.2218182,42.1163636 L24.1309091,41.5127273 C25.2249506,41.2816501 26.3530865,41.2619015 27.4545455,41.4545455 L37.0181818,43.1272727 C37.229695,43.1622833 37.4437937,43.1793138 37.6581818,43.1781818 C39.1395528,43.1665706 40.4657933,42.2574772 41.0109091,40.88 L62.9090909,32.88 C64.1950095,32.5740798 65.5161407,33.229173 66.0509916,34.4379361 C66.5858425,35.6466993 66.1821395,37.0649935 65.0909091,37.8109091 L65.0909091,37.8181818 Z" id="Shape"></path>
            </g>
        </g>
    </g>
</svg>