<?xml version="1.0" encoding="UTF-8"?>
<svg width="64px" height="56px" viewBox="0 0 64 56" version="1.1" xmlns="http://www.w3.org/2000/svg" xmlns:xlink="http://www.w3.org/1999/xlink">
    <title>2C6E93B7-EE0F-45D3-9716-472309AF3397</title>
    <g id="UI-Kit" stroke="none" stroke-width="1" fill="none" fill-rule="evenodd">
        <g id="EVC_UIKit_Icons" transform="translate(-747.000000, -367.000000)" fill="#252525" fill-rule="nonzero" stroke="#FFFFFF" stroke-width="0.25">
            <g id="noun_support_3705479" transform="translate(747.000000, 367.000000)">
                <path d="M59.9865479,36.3975694 C58.8327936,35.9772543 57.5888429,36.0393474 56.4843642,36.5753987 L46.018354,41.6641845 C46.0426596,41.4571125 46.0813965,41.2542181 46.0813965,41.04069 C46.0813965,38.0679116 43.6628988,35.6495088 40.6901205,35.6495088 L31.687001,35.6495088 L29.8235434,34.1070556 C26.5120064,31.3668891 22.3209121,29.8573811 18.021867,29.8573811 L12.5938478,29.8573811 C12.4890301,28.5111761 11.3720189,27.4438204 9.99894482,27.4438204 L3.16025391,27.4438204 C1.71834584,27.4438204 0.545033067,28.6170382 0.545033067,30.0583766 L0.545033067,50.1711289 C0.545033067,51.6137017 1.71834584,52.7870143 3.16025391,52.7870143 L9.99894482,52.7870143 C11.2025446,52.7870143 12.2085667,51.9650878 12.5117214,50.8558619 L13.8459636,50.8558619 L26.5144749,54.9447019 C28.6886829,55.5258516 30.9036215,55.8134357 33.1083063,55.8134357 C37.2476563,55.8134357 41.3511177,54.7997231 45.0792672,52.8113199 L60.5525066,44.5581596 C62.6103137,43.460422 63.4851238,40.9298909 62.5439481,38.797743 C62.0480577,37.6731364 61.1403971,36.8214926 59.9865479,36.3975694 Z M10.1189534,50.1711291 C10.1189534,50.2381592 10.0653103,50.2918024 9.99894482,50.2918024 L3.16025391,50.2918024 C3.09388831,50.2918024 3.04024529,50.2381592 3.04024529,50.1711291 L3.04024529,30.0583768 C3.04024529,29.9925808 3.09388847,29.9390327 3.16025391,29.9390327 L9.99894482,29.9390327 C10.0653104,29.9390327 10.1189534,29.9925808 10.1189534,30.0583768 L10.1189534,50.1711291 Z M59.3779595,42.356608 L43.904815,50.6097682 C38.7517524,53.3583848 32.8048664,54.0406493 27.2193359,52.5530734 L14.4253093,48.4216037 C14.3015978,48.3813476 14.1724746,48.3606499 14.042117,48.3606499 L12.6141655,48.3606499 L12.6141655,32.3525933 L18.0218668,32.3525933 C21.7415663,32.3525933 25.3673664,33.6586371 28.2323838,36.0295681 L30.4419108,37.8583713 C30.665408,38.0435113 30.9469157,38.1447211 31.2374431,38.1447211 L40.6901205,38.1447211 C42.2867866,38.1447211 43.5861844,39.4434542 43.5861844,41.04069 C43.5861844,42.2355548 42.8576823,43.2632242 41.821658,43.7047117 L41.8144423,43.7082246 C41.4685628,43.8544377 41.0885986,43.9355196 40.6901205,43.9355196 L26.5711561,43.9355196 C25.8821506,43.9355196 25.3235026,44.4935979 25.3235026,45.1831732 C25.3235026,45.8727484 25.8821506,46.4307318 26.5711561,46.4307318 L40.6901205,46.4307318 C41.4494792,46.4307318 42.1704808,46.2692328 42.826446,45.9847819 C42.8355606,45.9806044 42.8454346,45.9819335 42.8545493,45.9775661 L57.5760256,38.8196749 C58.0664092,38.5808918 58.6165123,38.5540227 59.1275935,38.740492 C59.6387697,38.9281006 60.0407607,39.305786 60.2607451,39.8040499 C60.6780219,40.7494982 60.2899875,41.870402 59.3779595,42.356608 Z" id="Shape"></path>
                <path d="M32.590484,26.6981336 C32.590484,27.3877088 33.149037,27.9457872 33.8380426,27.9457872 L57.7502469,27.9457872 C58.4392524,27.9457872 58.9979004,27.3877089 58.9979004,26.6981336 C58.9979004,21.0833604 55.4691324,16.2886148 50.5180149,14.3823377 C52.4354004,12.9393852 53.6955865,10.6667209 53.6955865,8.08767353 C53.6955865,3.73080773 50.1507731,0.186564 45.7939073,0.186564 C41.4369466,0.186564 37.8927978,3.73080773 37.8927978,8.08767353 C37.8927978,10.6667209 39.152699,12.9393852 41.0699896,14.3823377 C36.1191569,16.2887099 32.590484,21.0833605 32.590484,26.6981336 Z M40.38801,8.08767369 C40.38801,5.10635051 42.8131538,2.68177638 45.7939073,2.68177638 C48.7752305,2.68177638 51.2003742,5.10635051 51.2003742,8.08767369 C51.2003742,11.0689969 48.7752305,13.493571 45.7939073,13.493571 C42.8131538,13.493571 40.38801,11.0689969 40.38801,8.08767369 Z M45.7939073,15.9887831 C51.276519,15.9887831 55.8106446,20.1311714 56.4301512,25.4505751 L35.1581381,25.4505751 C35.7777398,20.1311714 40.3112007,15.9887831 45.7939073,15.9887831 Z" id="Shape"></path>
            </g>
        </g>
    </g>
</svg>