<?xml version="1.0" encoding="UTF-8"?>
<svg width="24px" height="24px" viewBox="0 0 24 24" version="1.1" xmlns="http://www.w3.org/2000/svg" xmlns:xlink="http://www.w3.org/1999/xlink">
    <title>AEC24C8A-B09D-487F-94AD-9AC6CCF6A9CC</title>
    <g id="UI-Kit" stroke="none" stroke-width="1" fill="none" fill-rule="evenodd">
        <g id="EVC_UIKit_Icons" transform="translate(-557.000000, -807.000000)" fill="#252525" fill-rule="nonzero">
            <g id="noun_transfer_1507373" transform="translate(557.000000, 807.000000)">
                <path d="M13.4934545,11.6304545 L19.2902727,17.4272727 C19.3723636,17.5093636 19.4091818,17.619 19.4037273,17.7272727 C19.4091818,17.8352727 19.3723636,17.9451818 19.2902727,18.0272727 L13.4934545,23.8240909 C13.3396364,23.9779091 13.0881818,23.9779091 12.9343636,23.8240909 L11.3383636,22.2280909 C11.1845455,22.0742727 11.1845455,21.8228182 11.3383636,21.669 L13.7563636,19.251 L0.451363636,19.251 C0.234,19.251 0.0559090909,19.0731818 0.0559090909,18.8555455 L0.0559090909,16.5987273 C0.0559090909,16.3813636 0.233727273,16.2032727 0.451363636,16.2032727 L13.7563636,16.2032727 L11.3383636,13.7852727 C11.1845455,13.6314545 11.1845455,13.38 11.3383636,13.2261818 L12.9343636,11.6301818 C13.0881818,11.4769091 13.3396364,11.4769091 13.4934545,11.6304545 Z M9.96109091,12.3695455 L4.16427273,6.57272727 C4.08218182,6.49063636 4.04536364,6.381 4.05081818,6.27272727 C4.04536364,6.16472727 4.08218182,6.05481818 4.16427273,5.97272727 L9.96109091,0.175909091 C10.1149091,0.0220909091 10.3663636,0.0220909091 10.5201818,0.175909091 L12.1161818,1.77190909 C12.27,1.92572727 12.27,2.17718182 12.1161818,2.331 L9.69818182,4.749 L23.0031818,4.749 C23.2205455,4.749 23.3986364,4.92681818 23.3986364,5.14445455 L23.3986364,7.40127273 C23.3986364,7.61863636 23.2208182,7.79672727 23.0031818,7.79672727 L9.69818182,7.79672727 L12.1161818,10.2147273 C12.27,10.3685455 12.27,10.62 12.1161818,10.7738182 L10.5201818,12.3698182 C10.3663636,12.5230909 10.1149091,12.5230909 9.96109091,12.3695455 Z" id="Shape"></path>
            </g>
        </g>
    </g>
</svg>