<?xml version="1.0" encoding="UTF-8"?>
<svg width="38px" height="32px" viewBox="0 0 38 32" version="1.1" xmlns="http://www.w3.org/2000/svg" xmlns:xlink="http://www.w3.org/1999/xlink">
    <title>3D32779B-ECA6-4BBC-A218-AE32C2BA5C91</title>
    <g id="UI-Kit" stroke="none" stroke-width="1" fill="none" fill-rule="evenodd">
        <g id="EVC_UIKit_Icons" transform="translate(-103.000000, -1112.000000)" fill="#007438" fill-rule="nonzero">
            <g id="twitter-copy" transform="translate(103.000000, 1112.000000)">
                <path d="M37.3956353,3.72259235 C36.5513347,4.10161414 35.6748853,4.40062959 34.7755519,4.61710628 C35.7665141,3.66378348 36.5115888,2.47137962 36.9319324,1.14044195 L36.9319324,1.14044195 C37.0519115,0.760482219 36.6442606,0.431921635 36.3053545,0.635360946 L36.3053545,0.635360946 C35.0542369,1.38665135 33.7065801,1.95025984 32.2997214,2.3107104 C32.2180986,2.33162648 32.1338816,2.34222521 32.0493867,2.34222521 C31.7931225,2.34222521 31.5439923,2.24589871 31.3480419,2.07106658 C29.851222,0.735532999 27.9260907,0 25.927397,0 C25.0625286,0 24.1893219,0.136470354 23.331958,0.405659299 C20.6755567,1.23976985 18.6259066,3.45809311 17.9828374,6.19500371 C17.7415822,7.22157967 17.6762654,8.24909357 17.7885547,9.24893822 C17.8014327,9.36383594 17.7477896,9.44402986 17.7147143,9.48164128 C17.656624,9.5475785 17.57426,9.58537751 17.488746,9.58537751 C17.4792032,9.58537751 17.4693826,9.58490854 17.4596545,9.5839706 C11.6448854,9.03705745 6.40138337,6.20100653 2.69500309,1.59834453 L2.69500309,1.59834453 C2.50600132,1.36357801 2.14356263,1.39237278 1.99291711,1.65396441 L1.99291711,1.65396441 C1.26711325,2.91455654 0.883550839,4.3563588 0.883550839,5.82348545 C0.883550839,8.07191659 1.77584302,10.1908181 3.32575017,11.7355125 C2.67397201,11.579064 2.04313228,11.332667 1.45713415,11.0031685 L1.45713415,11.0031685 C1.1736315,10.8437186 0.824812054,11.0486586 0.820828193,11.3769378 L0.820828193,11.3769378 C0.780248402,14.7171318 2.71195766,17.6892779 5.60572298,19.0276253 C5.54744744,19.0290322 5.48917189,19.0296888 5.4308037,19.0296888 C4.97210382,19.0296888 4.50765976,18.9848552 4.0505349,18.8964074 L4.0505349,18.8964074 C3.73127014,18.8346909 3.4630544,19.1413037 3.56218768,19.4546696 L3.56218768,19.4546696 C4.50145235,22.4233453 7.02629363,24.6115607 10.0477278,25.1083878 C7.54011903,26.8125321 4.61994905,27.7114543 1.58063384,27.7114543 L0.633123495,27.7108915 C0.34118988,27.7108915 0.0942831572,27.9035445 0.0198868725,28.189804 C-0.053397637,28.4717489 0.0815903913,28.7691699 0.330535369,28.91577 C3.7553586,30.9335616 7.66185841,32 11.6294132,32 C15.1023207,32 18.3509276,31.302266 21.2850874,29.9263072 C23.9749346,28.6648709 26.3519098,26.8616801 28.349955,24.5668209 C30.2112518,22.4290668 31.6667508,19.9612513 32.675872,17.2320318 C33.6378354,14.6304661 34.1462872,11.8545371 34.1462872,9.20429225 L34.1462872,9.07804545 C34.1461946,8.65250181 34.3363081,8.25209498 34.6679877,7.97952945 C35.9266097,6.94498099 37.0226347,5.72715895 37.9254888,4.35992297 L37.9254888,4.35992297 C38.1638719,3.99890964 37.7879066,3.54644711 37.3956353,3.72259235 L37.3956353,3.72259235 Z" id="Path"></path>
            </g>
        </g>
    </g>
</svg>