<?xml version="1.0" encoding="UTF-8"?>
<svg width="24px" height="19px" viewBox="0 0 24 19" version="1.1" xmlns="http://www.w3.org/2000/svg" xmlns:xlink="http://www.w3.org/1999/xlink">
    <title>6D15A11E-E86D-41B1-BEA9-99DD4AE21378</title>
    <g id="UI-Kit" stroke="none" stroke-width="1" fill="none" fill-rule="evenodd">
        <g id="EVC_UIKit_Icons" transform="translate(-629.000000, -809.000000)" fill="#252525" fill-rule="nonzero">
            <g id="noun_Work_1730635" transform="translate(629.000000, 809.000000)">
                <path d="M22.5695125,3.64024395 L15.2890246,3.64024395 L15.2890246,0.72804879 C15.2890246,0.325958546 14.963066,0 14.5609758,0 L8.73658548,0 C8.33449524,0 8.00853669,0.325958546 8.00853669,0.72804879 L8.00853669,3.64024395 L0.72804879,3.64024395 C0.325958546,3.64024395 0,3.9662025 0,4.36829274 L0,7.6445123 C0.0358612341,9.48591879 1.55484357,10.9511751 3.39634761,10.9207319 L9.46463427,10.9207319 L9.46463427,9.82865867 C9.46463427,9.02447818 10.1165514,8.37256109 10.9207318,8.37256109 L12.3768294,8.37256109 C13.1810099,8.37256109 13.832927,9.02447818 13.832927,9.82865867 L13.832927,10.9207319 L19.9012137,10.9207319 C21.7427177,10.9511751 23.2617,9.48591879 23.2975613,7.6445123 L23.2975613,4.36829274 C23.2975613,3.9662025 22.9716027,3.64024395 22.5695125,3.64024395 Z M13.832927,3.64024395 L9.46463427,3.64024395 L9.46463427,1.45609758 L13.832927,1.45609758 L13.832927,3.64024395 Z M23.2975613,9.91238428 L23.2975613,18.2012197 C23.2975613,18.60331 22.9716027,18.9292685 22.5695125,18.9292685 L0.72804879,18.9292685 C0.325958546,18.9292685 0,18.60331 0,18.2012197 L0,9.91238428 C0.784089329,11.0070746 2.04982852,11.6541888 3.39634761,11.6487806 L9.46463427,11.6487806 L9.46463427,12.7408538 C9.46463427,13.5450343 10.1165514,14.1969514 10.9207318,14.1969514 L12.3768294,14.1969514 C13.1810099,14.1969514 13.832927,13.5450343 13.832927,12.7408538 L13.832927,11.6487806 L19.9012137,11.6487806 C21.2477328,11.6541888 22.513472,11.0070746 23.2975613,9.91238428 Z M10.9207319,13.4689026 C10.5186416,13.4689026 10.1926831,13.1429441 10.1926831,12.7408538 L10.1926831,9.82865867 C10.1926831,9.42656842 10.5186416,9.10060987 10.9207319,9.10060987 L12.3768294,9.10060987 C12.7789197,9.10060987 13.1048782,9.42656842 13.1048782,9.82865867 L13.1048782,12.7408538 C13.1048782,13.1429441 12.7789197,13.4689026 12.3768294,13.4689026 L10.9207319,13.4689026 Z" id="Shape"></path>
            </g>
        </g>
    </g>
</svg>